0
SECTION
2
HEADER
9
$INSUNITS
70
1
0
ENDSEC
0
SECTION
2
TABLES
0
TABLE
2
LTYPE
0
LTYPE
72
65
70
64
2
CONTINUOUS
3
______
73
0
40
0
0
ENDTAB
0
TABLE
2
LAYER
0
ENDTAB
0
ENDSEC
0
SECTION
2
ENTITIES
0
LINE
8
front_outsideCutPath
10
0.7616
20
0.243
11
1.2994
21
0.243
0
LINE
8
front_outsideCutPath
10
1.2994
20
0.243
11
1.2994
21
0.125
0
LINE
8
front_outsideCutPath
10
1.2994
20
0.125
11
1.8531
21
0.125
0
LINE
8
front_outsideCutPath
10
1.8531
20
0.125
11
1.8531
21
0.243
0
LINE
8
front_outsideCutPath
10
1.8531
20
0.243
11
2.3909
21
0.243
0
LINE
8
front_outsideCutPath
10
2.3909
20
0.243
11
2.3909
21
0.125
0
LINE
8
front_outsideCutPath
10
2.3909
20
0.125
11
2.9446
21
0.125
0
LINE
8
front_outsideCutPath
10
2.9446
20
0.125
11
2.9446
21
0.243
0
LINE
8
front_outsideCutPath
10
2.9446
20
0.243
11
3.4824
21
0.243
0
LINE
8
front_outsideCutPath
10
3.4824
20
0.243
11
3.4824
21
0.125
0
LINE
8
front_outsideCutPath
10
3.4824
20
0.125
11
4.244
21
0.125
0
LINE
8
front_outsideCutPath
10
4.244
20
0.125
11
4.244
21
0.9324
0
LINE
8
front_outsideCutPath
10
4.244
20
0.9324
11
4.126
21
0.9324
0
LINE
8
front_outsideCutPath
10
4.126
20
0.9324
11
4.126
21
1.4701
0
LINE
8
front_outsideCutPath
10
4.126
20
1.4701
11
4.244
21
1.4701
0
LINE
8
front_outsideCutPath
10
4.244
20
1.4701
11
4.244
21
2.0239
0
LINE
8
front_outsideCutPath
10
4.244
20
2.0239
11
4.126
21
2.0239
0
LINE
8
front_outsideCutPath
10
4.126
20
2.0239
11
4.126
21
2.5616
0
LINE
8
front_outsideCutPath
10
4.126
20
2.5616
11
4.244
21
2.5616
0
LINE
8
front_outsideCutPath
10
4.244
20
2.5616
11
4.244
21
3.369
0
LINE
8
front_outsideCutPath
10
4.244
20
3.369
11
3.4824
21
3.369
0
LINE
8
front_outsideCutPath
10
3.4824
20
3.369
11
3.4824
21
3.251
0
LINE
8
front_outsideCutPath
10
3.4824
20
3.251
11
2.9446
21
3.251
0
LINE
8
front_outsideCutPath
10
2.9446
20
3.251
11
2.9446
21
3.369
0
LINE
8
front_outsideCutPath
10
2.9446
20
3.369
11
2.3909
21
3.369
0
LINE
8
front_outsideCutPath
10
2.3909
20
3.369
11
2.3909
21
3.251
0
LINE
8
front_outsideCutPath
10
2.3909
20
3.251
11
1.8531
21
3.251
0
LINE
8
front_outsideCutPath
10
1.8531
20
3.251
11
1.8531
21
3.369
0
LINE
8
front_outsideCutPath
10
1.8531
20
3.369
11
1.2994
21
3.369
0
LINE
8
front_outsideCutPath
10
1.2994
20
3.369
11
1.2994
21
3.251
0
LINE
8
front_outsideCutPath
10
1.2994
20
3.251
11
0.7616
21
3.251
0
LINE
8
front_outsideCutPath
10
0.7616
20
3.251
11
0.7616
21
3.369
0
LINE
8
front_outsideCutPath
10
0.7616
20
3.369
11
0
21
3.369
0
LINE
8
front_outsideCutPath
10
0
20
3.369
11
0
21
2.5616
0
LINE
8
front_outsideCutPath
10
0
20
2.5616
11
0.118
21
2.5616
0
LINE
8
front_outsideCutPath
10
0.118
20
2.5616
11
0.118
21
2.0239
0
LINE
8
front_outsideCutPath
10
0.118
20
2.0239
11
0
21
2.0239
0
LINE
8
front_outsideCutPath
10
0
20
2.0239
11
0
21
1.4701
0
LINE
8
front_outsideCutPath
10
0
20
1.4701
11
0.118
21
1.4701
0
LINE
8
front_outsideCutPath
10
0.118
20
1.4701
11
0.118
21
0.9324
0
LINE
8
front_outsideCutPath
10
0.118
20
0.9324
11
0
21
0.9324
0
LINE
8
front_outsideCutPath
10
0
20
0.9324
11
0
21
0.125
0
LINE
8
front_outsideCutPath
10
0
20
0.125
11
0.7616
21
0.125
0
LINE
8
front_outsideCutPath
10
0.7616
20
0.125
11
0.7616
21
0.243
0
LINE
8
front_labelLayer
10
1.5845541
20
1.8491739
11
1.5845541
21
1.8083071
0
LINE
8
front_labelLayer
10
1.5845541
20
1.8083071
11
1.4961678
21
1.8083071
0
LINE
8
front_labelLayer
10
1.4961678
20
1.8083071
11
1.4961678
21
1.5019645
0
LINE
8
front_labelLayer
10
1.4961678
20
1.5019645
11
1.4435795
21
1.5019645
0
LINE
8
front_labelLayer
10
1.4435795
20
1.5019645
11
1.4435795
21
1.8083071
0
LINE
8
front_labelLayer
10
1.4435795
20
1.8083071
11
1.3814873
21
1.8083071
0
LINE
8
front_labelLayer
10
1.3814873
20
1.8083071
11
1.3814873
21
1.8320669
0
LINE
8
front_labelLayer
10
1.3814873
20
1.8320669
11
1.4435795
21
1.8510747
0
LINE
8
front_labelLayer
10
1.4435795
20
1.8510747
11
1.4435795
21
1.8703993
0
LINE
8
front_labelLayer
10
1.6200353
20
1.9872973
11
1.6064131
21
1.9451633
0
LINE
8
front_labelLayer
10
1.4961678
20
1.8716665
11
1.4961678
21
1.8491739
0
LINE
8
front_labelLayer
10
1.4961678
20
1.8491739
11
1.5845541
21
1.8491739
0
ARC
8
front_labelLayer
10
1.6567088
20
1.8728487
40
0.2131434
50
167.5778298
51
180.6584482
0
ARC
8
front_labelLayer
10
1.5564759
20
1.8962168
40
0.1102375
50
141.7431897
51
168.232529
0
ARC
8
front_labelLayer
10
1.5401594
20
1.904733
40
0.0922151
50
98.2551377
51
139.6204395
0
ARC
8
front_labelLayer
10
1.5544882
20
1.83853
40
0.1598579
50
89.6700658
51
99.9309322
0
ARC
8
front_labelLayer
10
1.5545288
20
1.8290486
40
0.1693389
50
81.5642414
51
89.7022618
0
ARC
8
front_labelLayer
10
1.5426154
20
1.745957
40
0.2532794
50
75.9739862
51
81.6558832
0
ARC
8
front_labelLayer
10
1.5221664
20
1.6611597
40
0.3405055
50
73.2962935
51
76.0938369
0
ARC
8
front_labelLayer
10
1.5273333
20
1.702343
40
0.2553729
50
71.9610252
51
76.5914164
0
ARC
8
front_labelLayer
10
1.5471451
20
1.7863759
40
0.1690365
50
76.5185628
51
83.0213071
0
ARC
8
front_labelLayer
10
1.5540491
20
1.8418805
40
0.1131043
50
83.0765569
51
89.7926868
0
ARC
8
front_labelLayer
10
1.553822
20
1.8840666
40
0.0709202
50
89.4858909
51
103.4198665
0
ARC
8
front_labelLayer
10
1.5474273
20
1.9086319
40
0.0455446
50
102.7671001
51
144.3383451
0
ARC
8
front_labelLayer
10
1.5603099
20
1.9003423
40
0.060849
50
145.0685051
51
162.179568
0
ARC
8
front_labelLayer
10
1.604473
20
1.8854843
40
0.1074419
50
161.84378
51
171.7849183
0
ARC
8
front_labelLayer
10
1.6765311
20
1.8746632
40
0.1803074
50
171.6534516
51
178.4382325
0
ARC
8
front_labelLayer
10
1.7445733
20
1.8717607
40
0.2484057
50
178.1967491
51
180.0217363
0
LINE
8
front_labelLayer
10
1.8478123
20
1.8517083
11
1.840526
21
1.8029215
0
LINE
8
front_labelLayer
10
1.7005017
20
1.6882411
11
1.7005017
21
1.5019645
0
LINE
8
front_labelLayer
10
1.7005017
20
1.5019645
11
1.6479135
21
1.5019645
0
LINE
8
front_labelLayer
10
1.6479135
20
1.5019645
11
1.6479135
21
1.8491739
0
LINE
8
front_labelLayer
10
1.6479135
20
1.8491739
11
1.6913146
21
1.8491739
0
LINE
8
front_labelLayer
10
1.6913146
20
1.8491739
11
1.6973338
21
1.7848641
0
LINE
8
front_labelLayer
10
1.6973338
20
1.7848641
11
1.6998681
21
1.7848641
0
ARC
8
front_labelLayer
10
1.8068517
20
1.6140551
40
0.2414554
50
84.992934
51
90.1280902
0
ARC
8
front_labelLayer
10
1.8126521
20
1.6790594
40
0.1761927
50
78.4890483
51
85.0270139
0
ARC
8
front_labelLayer
10
1.790159
20
1.5767541
40
0.2317079
50
77.4452252
51
81.6370147
0
ARC
8
front_labelLayer
10
1.8002463
20
1.646328
40
0.1614068
50
81.5876827
51
87.1919953
0
ARC
8
front_labelLayer
10
1.8024325
20
1.6842118
40
0.1234618
50
87.3440465
51
89.9638854
0
ARC
8
front_labelLayer
10
1.8019273
20
1.7165562
40
0.0911192
50
89.6333614
51
137.0883135
0
ARC
8
front_labelLayer
10
1.8243148
20
1.6913892
40
0.1246922
50
135.6226253
51
138.8386393
0
ARC
8
front_labelLayer
10
1.8210131
20
1.6946069
40
0.1200891
50
138.9576108
51
174.5423152
0
ARC
8
front_labelLayer
10
1.8600903
20
1.6884888
40
0.1595887
50
173.6900938
51
180.0889546
0
ARC
8
front_labelLayer
10
1.854588
20
1.6976965
40
0.177585
50
139.413697
51
150.6035196
0
ARC
8
front_labelLayer
10
1.8227548
20
1.7249746
40
0.135663
50
124.2324843
51
139.4159422
0
ARC
8
front_labelLayer
10
1.8057262
20
1.7506767
40
0.1048347
50
89.6798999
51
124.4402674
0
ARC
8
front_labelLayer
10
1.9408064
20
1.6740547
40
0.2716453
50
349.1763996
51
0.3862542
0
ARC
8
front_labelLayer
10
2.0322714
20
1.655821
40
0.1783848
50
330.250464
51
349.4119807
0
ARC
8
front_labelLayer
10
2.0604034
20
1.6411998
40
0.1467107
50
318.1444869
51
329.7563554
0
ARC
8
front_labelLayer
10
2.0654911
20
1.6371232
40
0.1402015
50
278.8960358
51
317.9980322
0
ARC
8
front_labelLayer
10
2.0524027
20
1.6998223
40
0.2041958
50
269.7502544
51
279.8037948
0
ARC
8
front_labelLayer
10
2.0502803
20
1.6645016
40
0.1688776
50
253.547276
51
270.4181199
0
ARC
8
front_labelLayer
10
2.0446613
20
1.6427606
40
0.1464374
50
238.8118629
51
253.2465225
0
ARC
8
front_labelLayer
10
2.0428438
20
1.6391058
40
0.14237
50
207.7947743
51
238.6759269
0
ARC
8
front_labelLayer
10
2.0689566
20
1.6550921
40
0.1729356
50
205.6572352
51
208.4458995
0
ARC
8
front_labelLayer
10
2.0889285
20
1.6634049
40
0.1945409
50
188.9102442
51
205.3172445
0
ARC
8
front_labelLayer
10
2.1564934
20
1.6748492
40
0.2630643
50
179.7741847
51
189.0934826
0
ARC
8
front_labelLayer
10
2.1664735
20
1.6777363
40
0.2730488
50
169.2444043
51
180.3882684
0
ARC
8
front_labelLayer
10
2.0737465
20
1.6960648
40
0.1785315
50
150.7109023
51
169.4696325
0
ARC
8
front_labelLayer
10
2.0441523
20
1.7112623
40
0.145291
50
138.1760832
51
150.2284939
0
ARC
8
front_labelLayer
10
2.0392244
20
1.7150444
40
0.1390974
50
99.175835
51
137.9833896
0
ARC
8
front_labelLayer
10
2.0527771
20
1.6512674
40
0.2042447
50
89.7326202
51
100.076114
0
ARC
8
front_labelLayer
10
2.0554858
20
1.6788094
40
0.1767092
50
73.5222016
51
90.5692289
0
ARC
8
front_labelLayer
10
2.0658496
20
1.7164614
40
0.1376659
50
41.144358
51
73.2135391
0
ARC
8
front_labelLayer
10
2.0460656
20
1.6994571
40
0.1637526
50
13.5015322
51
41.0702415
0
ARC
8
front_labelLayer
10
1.9696422
20
1.6794577
40
0.2427386
50
1.1276639
51
13.8801269
0
ARC
8
front_labelLayer
10
1.9033663
20
1.6759223
40
0.3090792
50
359.9932615
51
1.5411279
0
ARC
8
front_labelLayer
10
2.2142359
20
1.6745205
40
0.2663193
50
179.7062325
51
187.9159378
0
ARC
8
front_labelLayer
10
2.1165521
20
1.6604894
40
0.1676345
50
187.7640415
51
200.0976346
0
ARC
8
front_labelLayer
10
2.0627377
20
1.6407708
40
0.1103213
50
200.0840353
51
216.9134329
0
ARC
8
front_labelLayer
10
2.043094
20
1.626744
40
0.0861926
50
217.3010765
51
261.7097808
0
ARC
8
front_labelLayer
10
2.0522154
20
1.6702687
40
0.1306066
50
260.5031345
51
270.2476454
0
ARC
8
front_labelLayer
10
2.0539564
20
1.6618054
40
0.1221478
50
269.4481216
51
284.7256925
0
ARC
8
front_labelLayer
10
2.063626
20
1.6259449
40
0.0850075
50
284.5662673
51
322.633238
0
ARC
8
front_labelLayer
10
2.0410175
20
1.642278
40
0.1128912
50
323.0090037
51
342.6391203
0
ARC
8
front_labelLayer
10
1.9763385
20
1.6634156
40
0.1809331
50
342.3619915
51
353.7532927
0
ARC
8
front_labelLayer
10
1.88096
20
1.6749123
40
0.2769982
50
353.5360478
51
0.2014101
0
ARC
8
front_labelLayer
10
1.8955732
20
1.6772265
40
0.2623867
50
359.7072782
51
7.8971918
0
ARC
8
front_labelLayer
10
1.9916596
20
1.6910015
40
0.1653194
50
7.74384
51
20.0686688
0
ARC
8
front_labelLayer
10
2.0452096
20
1.710651
40
0.108278
50
20.0258763
51
37.4350256
0
ARC
8
front_labelLayer
10
2.0629779
20
1.7232592
40
0.0865089
50
37.9576745
51
80.4007618
0
ARC
8
front_labelLayer
10
2.0528801
20
1.6781953
40
0.1326481
50
79.3460516
51
90.3169865
0
ARC
8
front_labelLayer
10
2.0510117
20
1.6856933
40
0.1251533
50
89.4805748
51
103.8805584
0
ARC
8
front_labelLayer
10
2.040496
20
1.7257372
40
0.0837583
50
103.4686549
51
142.3115437
0
ARC
8
front_labelLayer
10
2.0609412
20
1.7113593
40
0.1087334
50
142.9026339
51
162.3747213
0
ARC
8
front_labelLayer
10
2.1253758
20
1.6898889
40
0.1766468
50
162.0658229
51
173.1669614
0
ARC
8
front_labelLayer
10
2.2258172
20
1.6770795
40
0.2778997
50
173.0085657
51
180.2460786
0
LINE
8
front_labelLayer
10
2.5948193
20
1.5019645
11
2.542231
21
1.5019645
0
LINE
8
front_labelLayer
10
2.542231
20
1.5019645
11
2.542231
21
1.7265735
0
LINE
8
front_labelLayer
10
2.3572217
20
1.6841227
11
2.3572217
21
1.5019645
0
LINE
8
front_labelLayer
10
2.3572217
20
1.5019645
11
2.3046334
21
1.5019645
0
LINE
8
front_labelLayer
10
2.3046334
20
1.5019645
11
2.3046334
21
1.8491739
0
LINE
8
front_labelLayer
10
2.3046334
20
1.8491739
11
2.347401
21
1.8491739
0
LINE
8
front_labelLayer
10
2.347401
20
1.8491739
11
2.3559545
21
1.8016544
0
LINE
8
front_labelLayer
10
2.3559545
20
1.8016544
11
2.3584889
21
1.8016544
0
LINE
8
front_labelLayer
10
2.5948193
20
1.7284743
11
2.5948193
21
1.5019645
0
ARC
8
front_labelLayer
10
2.393583
20
1.7274261
40
0.1486505
50
359.6713815
51
8.6878988
0
ARC
8
front_labelLayer
10
2.448678
20
1.736165
40
0.0928682
50
8.4926842
51
22.6580246
0
ARC
8
front_labelLayer
10
2.4766672
20
1.7477968
40
0.0625582
50
22.7022039
51
42.3417796
0
ARC
8
front_labelLayer
10
2.4798124
20
1.7492098
40
0.0592913
50
43.3797162
51
71.5380966
0
ARC
8
front_labelLayer
10
2.4680493
20
1.7163433
40
0.0941944
50
71.0820505
51
84.3696786
0
ARC
8
front_labelLayer
10
2.4627641
20
1.671391
40
0.1394509
50
84.0206362
51
90.1503118
0
ARC
8
front_labelLayer
10
2.4612696
20
1.6516697
40
0.1591757
50
89.5937377
51
100.3711856
0
ARC
8
front_labelLayer
10
2.4500226
20
1.7106929
40
0.099093
50
100.1181727
51
118.1597764
0
ARC
8
front_labelLayer
10
2.4386852
20
1.7329264
40
0.0741424
50
118.5439778
51
139.1931434
0
ARC
8
front_labelLayer
10
2.448568
20
1.7262941
40
0.0859693
50
140.1518739
51
160.3149867
0
ARC
8
front_labelLayer
10
2.5082447
20
1.7039406
40
0.1496912
50
159.9532402
51
171.3804766
0
ARC
8
front_labelLayer
10
2.6057566
20
1.6882653
40
0.2484528
50
171.1766289
51
178.3214494
0
ARC
8
front_labelLayer
10
2.694308
20
1.6842618
40
0.3370862
50
178.0821341
51
180.0236361
0
ARC
8
front_labelLayer
10
2.4484487
20
1.7446797
40
0.1064842
50
116.9441553
51
147.6525469
0
ARC
8
front_labelLayer
10
2.459649
20
1.7259143
40
0.1282963
50
115.8097544
51
117.6057649
0
ARC
8
front_labelLayer
10
2.4651979
20
1.7129336
40
0.1423995
50
94.322301
51
115.5457183
0
ARC
8
front_labelLayer
10
2.4686076
20
1.6832991
40
0.1722107
50
89.9578969
51
94.7104249
0
ARC
8
front_labelLayer
10
2.4700152
20
1.64787
40
0.2076438
50
80.5589665
51
90.3534884
0
ARC
8
front_labelLayer
10
2.4829919
20
1.7230443
40
0.1313599
50
65.1095737
51
80.7639143
0
ARC
8
front_labelLayer
10
2.4981591
20
1.7566406
40
0.0945013
50
46.5584078
51
64.8781224
0
ARC
8
front_labelLayer
10
2.4993748
20
1.7601412
40
0.0911365
50
19.3847209
51
45.6000184
0
ARC
8
front_labelLayer
10
2.4466577
20
1.7403592
40
0.1474354
50
6.9628546
51
19.8367804
0
ARC
8
front_labelLayer
10
2.3653424
20
1.729423
40
0.229479
50
359.7631357
51
7.2120575
0
LINE
8
front_labelLayer
10
2.8625127
20
1.5453657
11
2.8625127
21
1.5051325
0
LINE
8
front_labelLayer
10
2.7066486
20
1.6017555
11
2.7066486
21
1.8083071
0
LINE
8
front_labelLayer
10
2.7066486
20
1.8083071
11
2.6569115
21
1.8083071
0
LINE
8
front_labelLayer
10
2.6569115
20
1.8083071
11
2.6569115
21
1.8336508
0
LINE
8
front_labelLayer
10
2.6569115
20
1.8336508
11
2.7066486
21
1.8555098
0
LINE
8
front_labelLayer
10
2.7066486
20
1.8555098
11
2.7288244
21
1.9296403
0
LINE
8
front_labelLayer
10
2.7288244
20
1.9296403
11
2.7592369
21
1.9296403
0
LINE
8
front_labelLayer
10
2.7592369
20
1.9296403
11
2.7592369
21
1.8491739
0
LINE
8
front_labelLayer
10
2.7592369
20
1.8491739
11
2.8599783
21
1.8491739
0
LINE
8
front_labelLayer
10
2.8599783
20
1.8491739
11
2.8599783
21
1.8083071
0
LINE
8
front_labelLayer
10
2.8599783
20
1.8083071
11
2.7592369
21
1.8083071
0
LINE
8
front_labelLayer
10
2.7592369
20
1.8083071
11
2.7592369
21
1.6039731
0
ARC
8
front_labelLayer
10
2.8153551
20
1.7117211
40
0.1726917
50
269.8799198
51
278.3031496
0
ARC
8
front_labelLayer
10
2.8168398
20
1.6994428
40
0.160328
50
278.4117745
51
279.0001057
0
ARC
8
front_labelLayer
10
2.7974711
20
1.8229764
40
0.2853705
50
278.960969
51
280.5075798
0
ARC
8
front_labelLayer
10
2.8160667
20
1.7231307
40
0.1838079
50
280.4841072
51
282.6247023
0
ARC
8
front_labelLayer
10
2.8323385
20
1.6508317
40
0.1097004
50
282.5847455
51
285.5826932
0
ARC
8
front_labelLayer
10
2.8407793
20
1.6198747
40
0.077614
50
285.7195554
51
286.2612954
0
ARC
8
front_labelLayer
10
2.8404007
20
1.5519004
40
0.0517318
50
287.9896905
51
295.3048918
0
ARC
8
front_labelLayer
10
2.827914
20
1.589692
40
0.0915325
50
283.3076013
51
288.1176646
0
ARC
8
front_labelLayer
10
2.8147565
20
1.6445627
40
0.1479585
50
280.0072713
51
283.3750282
0
ARC
8
front_labelLayer
10
2.806207
20
1.6908381
40
0.1950159
50
279.1824183
51
280.1183279
0
ARC
8
front_labelLayer
10
2.8005365
20
1.7231061
40
0.2277756
50
275.5247722
51
279.2952574
0
ARC
8
front_labelLayer
10
2.8066173
20
1.6595091
40
0.1638887
50
270.8930868
51
275.5493463
0
ARC
8
front_labelLayer
10
2.8073826
20
1.6290286
40
0.1334001
50
270.0032042
51
270.7685166
0
ARC
8
front_labelLayer
10
2.8052673
20
1.6329637
40
0.1373515
50
253.7848911
51
270.8855267
0
ARC
8
front_labelLayer
10
2.7889952
20
1.5774689
40
0.0795204
50
190.3816703
51
253.8772564
0
ARC
8
front_labelLayer
10
2.8719334
20
1.5998951
40
0.1652954
50
179.3551018
51
192.8480362
0
ARC
8
front_labelLayer
10
2.8651337
20
1.6033118
40
0.1058989
50
179.6422313
51
189.7508209
0
ARC
8
front_labelLayer
10
2.8277479
20
1.5966439
40
0.0679244
50
189.5485555
51
205.787718
0
ARC
8
front_labelLayer
10
2.8123905
20
1.5895631
40
0.0510171
50
206.1306936
51
221.4073704
0
ARC
8
front_labelLayer
10
2.8106615
20
1.5882513
40
0.0488529
50
221.5946619
51
262.3506284
0
ARC
8
front_labelLayer
10
2.8147571
20
1.6093051
40
0.0702757
50
261.3259422
51
270.1924187
0
LINE
8
left_outsideCutPath
10
4.8014
20
0.243
11
5.3391
21
0.243
0
LINE
8
left_outsideCutPath
10
5.3391
20
0.243
11
5.3391
21
0.125
0
LINE
8
left_outsideCutPath
10
5.3391
20
0.125
11
5.8929
21
0.125
0
LINE
8
left_outsideCutPath
10
5.8929
20
0.125
11
5.8929
21
0.243
0
LINE
8
left_outsideCutPath
10
5.8929
20
0.243
11
6.4306
21
0.243
0
LINE
8
left_outsideCutPath
10
6.4306
20
0.243
11
6.4306
21
0.125
0
LINE
8
left_outsideCutPath
10
6.4306
20
0.125
11
6.745
21
0.125
0
LINE
8
left_outsideCutPath
10
6.745
20
0.125
11
6.745
21
0.9244
0
LINE
8
left_outsideCutPath
10
6.745
20
0.9244
11
6.863
21
0.9244
0
LINE
8
left_outsideCutPath
10
6.863
20
0.9244
11
6.863
21
1.4781
0
LINE
8
left_outsideCutPath
10
6.863
20
1.4781
11
6.745
21
1.4781
0
LINE
8
left_outsideCutPath
10
6.745
20
1.4781
11
6.745
21
2.0159
0
LINE
8
left_outsideCutPath
10
6.745
20
2.0159
11
6.863
21
2.0159
0
LINE
8
left_outsideCutPath
10
6.863
20
2.0159
11
6.863
21
2.5696
0
LINE
8
left_outsideCutPath
10
6.863
20
2.5696
11
6.745
21
2.5696
0
LINE
8
left_outsideCutPath
10
6.745
20
2.5696
11
6.745
21
3.369
0
LINE
8
left_outsideCutPath
10
6.745
20
3.369
11
6.4306
21
3.369
0
LINE
8
left_outsideCutPath
10
6.4306
20
3.369
11
6.4306
21
3.251
0
LINE
8
left_outsideCutPath
10
6.4306
20
3.251
11
5.8929
21
3.251
0
LINE
8
left_outsideCutPath
10
5.8929
20
3.251
11
5.8929
21
3.369
0
LINE
8
left_outsideCutPath
10
5.8929
20
3.369
11
5.3391
21
3.369
0
LINE
8
left_outsideCutPath
10
5.3391
20
3.369
11
5.3391
21
3.251
0
LINE
8
left_outsideCutPath
10
5.3391
20
3.251
11
4.8014
21
3.251
0
LINE
8
left_outsideCutPath
10
4.8014
20
3.251
11
4.8014
21
3.369
0
LINE
8
left_outsideCutPath
10
4.8014
20
3.369
11
4.487
21
3.369
0
LINE
8
left_outsideCutPath
10
4.487
20
3.369
11
4.487
21
2.5696
0
LINE
8
left_outsideCutPath
10
4.487
20
2.5696
11
4.369
21
2.5696
0
LINE
8
left_outsideCutPath
10
4.369
20
2.5696
11
4.369
21
2.0159
0
LINE
8
left_outsideCutPath
10
4.369
20
2.0159
11
4.487
21
2.0159
0
LINE
8
left_outsideCutPath
10
4.487
20
2.0159
11
4.487
21
1.4781
0
LINE
8
left_outsideCutPath
10
4.487
20
1.4781
11
4.369
21
1.4781
0
LINE
8
left_outsideCutPath
10
4.369
20
1.4781
11
4.369
21
0.9244
0
LINE
8
left_outsideCutPath
10
4.369
20
0.9244
11
4.487
21
0.9244
0
LINE
8
left_outsideCutPath
10
4.487
20
0.9244
11
4.487
21
0.125
0
LINE
8
left_outsideCutPath
10
4.487
20
0.125
11
4.8014
21
0.125
0
LINE
8
left_outsideCutPath
10
4.8014
20
0.125
11
4.8014
21
0.243
0
LINE
8
left_labelLayer
10
5.307538
20
1.9375869
11
5.307538
21
1.5586158
0
LINE
8
left_labelLayer
10
5.307538
20
1.5586158
11
5.2671079
21
1.5586158
0
LINE
8
left_labelLayer
10
5.2671079
20
1.5586158
11
5.2671079
21
1.9375869
0
LINE
8
left_labelLayer
10
5.2671079
20
1.9375869
11
5.307538
21
1.9375869
0
LINE
8
left_labelLayer
10
5.6041876
20
1.7103503
11
5.6041876
21
1.6847771
0
LINE
8
left_labelLayer
10
5.6041876
20
1.6847771
11
5.4203038
21
1.6847771
0
LINE
8
left_labelLayer
10
5.5927405
20
1.6070831
11
5.5927405
21
1.5710371
0
LINE
8
left_labelLayer
10
5.421278
20
1.717657
11
5.5608349
21
1.717657
0
ARC
8
left_labelLayer
10
5.5047049
20
1.7108402
40
0.1571012
50
256.0083559
51
270.4851359
0
ARC
8
left_labelLayer
10
5.4932654
20
1.6664345
40
0.1112478
50
223.5468241
51
256.1956262
0
ARC
8
left_labelLayer
10
5.4995765
20
1.6710208
40
0.1189861
50
194.087779
51
223.053808
0
ARC
8
left_labelLayer
10
5.5574133
20
1.6868356
40
0.1789373
50
181.3577332
51
194.4916438
0
ARC
8
left_labelLayer
10
5.6090268
20
1.68984
40
0.2306143
50
179.987145
51
181.8001124
0
ARC
8
left_labelLayer
10
5.5907031
20
1.6913168
40
0.2122955
50
168.9540792
51
180.384605
0
ARC
8
left_labelLayer
10
5.5213685
20
1.7054339
40
0.1415416
50
149.4069287
51
169.185372
0
ARC
8
left_labelLayer
10
5.5020492
20
1.7156425
40
0.1197206
50
140.1055893
51
148.9069432
0
ARC
8
left_labelLayer
10
5.4901836
20
1.7265822
40
0.1036034
50
92.4763651
51
140.5385674
0
ARC
8
left_labelLayer
10
5.4954691
20
1.6875263
40
0.1428964
50
89.9626664
51
93.9171988
0
ARC
8
left_labelLayer
10
5.4967339
20
1.7072527
40
0.1231757
50
74.212697
51
90.5450249
0
ARC
8
left_labelLayer
10
5.5044486
20
1.7356783
40
0.0937239
50
41.2063841
51
74.0232123
0
ARC
8
left_labelLayer
10
5.4898382
20
1.7230335
40
0.1130461
50
11.5996233
51
41.1497258
0
ARC
8
left_labelLayer
10
5.4396419
20
1.7114576
40
0.1645493
50
359.614455
51
12.0336545
0
ARC
8
left_labelLayer
10
5.5825398
20
1.6880182
40
0.1622684
50
181.1444871
51
190.8006699
0
ARC
8
left_labelLayer
10
5.5252927
20
1.6767276
40
0.1039202
50
190.6005858
51
206.0279224
0
ARC
8
left_labelLayer
10
5.499971
20
1.6647568
40
0.0759147
50
206.2955895
51
222.5553012
0
ARC
8
left_labelLayer
10
5.4977228
20
1.6635793
40
0.0734651
50
223.0646779
51
258.1401159
0
ARC
8
left_labelLayer
10
5.506658
20
1.7003768
40
0.1113198
50
257.5317861
51
270.4315122
0
ARC
8
left_labelLayer
10
5.5067565
20
1.802594
40
0.2135352
50
270.1985229
51
292.2089886
0
ARC
8
left_labelLayer
10
5.4963904
20
1.8323177
40
0.2449775
50
291.8258738
51
293.1601219
0
ARC
8
left_labelLayer
10
5.4959895
20
1.7937062
40
0.2427804
50
287.9028611
51
293.485235
0
ARC
8
left_labelLayer
10
5.5136106
20
1.7393547
40
0.1856439
50
281.9938405
51
287.8843207
0
ARC
8
left_labelLayer
10
5.5178822
20
1.7240022
40
0.1697418
50
275.9059866
51
281.6603381
0
ARC
8
left_labelLayer
10
5.5093472
20
1.8036427
40
0.2498379
50
271.9116584
51
275.9736343
0
ARC
8
left_labelLayer
10
5.5062252
20
1.8831906
40
0.329446
50
269.9669269
51
271.9928212
0
ARC
8
left_labelLayer
10
5.4942986
20
1.7168803
40
0.0796922
50
89.4417465
51
106.2095214
0
ARC
8
left_labelLayer
10
5.4895045
20
1.734358
40
0.0615716
50
106.4657366
51
137.9179355
0
ARC
8
left_labelLayer
10
5.5032505
20
1.7222863
40
0.0798646
50
138.0994688
51
160.5868409
0
ARC
8
left_labelLayer
10
5.5385826
20
1.7092869
40
0.1175098
50
160.3349099
51
172.5314683
0
ARC
8
left_labelLayer
10
5.5734136
20
1.7037108
40
0.1527734
50
172.1559057
51
174.7623737
0
ARC
8
left_labelLayer
10
5.423057
20
1.7184397
40
0.1377801
50
359.6745068
51
8.9218586
0
ARC
8
left_labelLayer
10
5.4722844
20
1.7264577
40
0.0879051
50
8.7351369
51
23.276355
0
ARC
8
left_labelLayer
10
5.4956706
20
1.7362747
40
0.0625434
50
23.4810768
51
39.7077429
0
ARC
8
left_labelLayer
10
5.501406
20
1.7405673
40
0.0553898
50
40.0820866
51
80.6241683
0
ARC
8
left_labelLayer
10
5.4954961
20
1.7134724
40
0.0830974
50
79.6470778
51
90.2902556
0
LINE
8
left_labelLayer
10
5.7934296
20
1.8255517
11
5.7934296
21
1.7941331
0
LINE
8
left_labelLayer
10
5.7934296
20
1.7941331
11
5.7254778
21
1.7941331
0
LINE
8
left_labelLayer
10
5.7254778
20
1.7941331
11
5.7254778
21
1.5586158
0
LINE
8
left_labelLayer
10
5.7254778
20
1.5586158
11
5.6850477
21
1.5586158
0
LINE
8
left_labelLayer
10
5.6850477
20
1.5586158
11
5.6850477
21
1.7941331
0
LINE
8
left_labelLayer
10
5.6850477
20
1.7941331
11
5.637311
21
1.7941331
0
LINE
8
left_labelLayer
10
5.637311
20
1.7941331
11
5.637311
21
1.8123998
0
LINE
8
left_labelLayer
10
5.637311
20
1.8123998
11
5.6850477
21
1.827013
0
LINE
8
left_labelLayer
10
5.6850477
20
1.827013
11
5.6850477
21
1.8418699
0
LINE
8
left_labelLayer
10
5.8207077
20
1.9317415
11
5.8102349
21
1.8993488
0
LINE
8
left_labelLayer
10
5.7254778
20
1.8428441
11
5.7254778
21
1.8255517
0
LINE
8
left_labelLayer
10
5.7254778
20
1.8255517
11
5.7934296
21
1.8255517
0
ARC
8
left_labelLayer
10
5.8489041
20
1.8437529
40
0.1638671
50
167.5779122
51
180.6584009
0
ARC
8
left_labelLayer
10
5.771844
20
1.8617177
40
0.0847521
50
141.7432083
51
168.232181
0
ARC
8
left_labelLayer
10
5.7592989
20
1.8682652
40
0.0708958
50
98.2551984
51
139.6201809
0
ARC
8
left_labelLayer
10
5.7703131
20
1.8173859
40
0.122882
50
89.6691941
51
99.9315107
0
ARC
8
left_labelLayer
10
5.7703433
20
1.8100654
40
0.1302024
50
81.5639385
51
89.7010765
0
ARC
8
left_labelLayer
10
5.7611933
20
1.7462288
40
0.194691
50
75.9735989
51
81.6564082
0
ARC
8
left_labelLayer
10
5.7455408
20
1.6812701
40
0.2615072
50
73.2954076
51
76.0958914
0
ARC
8
left_labelLayer
10
5.7494644
20
1.7127568
40
0.1962387
50
71.9602854
51
76.592872
0
ARC
8
left_labelLayer
10
5.7646673
20
1.7772567
40
0.1299716
50
76.5192636
51
83.0212196
0
ARC
8
left_labelLayer
10
5.7699774
20
1.8199609
40
0.0869387
50
83.0753356
51
89.7927302
0
ARC
8
left_labelLayer
10
5.769802
20
1.8523846
40
0.0545165
50
89.4851305
51
103.4209577
0
ARC
8
left_labelLayer
10
5.7648872
20
1.8712625
40
0.0350158
50
102.768125
51
144.3380565
0
ARC
8
left_labelLayer
10
5.7747912
20
1.86489
40
0.0467816
50
145.0687299
51
162.1795703
0
ARC
8
left_labelLayer
10
5.8087331
20
1.8534692
40
0.0825914
50
161.8428299
51
171.7852197
0
ARC
8
left_labelLayer
10
5.8640872
20
1.8451524
40
0.1385663
50
171.6519725
51
178.4394372
0
ARC
8
left_labelLayer
10
5.9164782
20
1.8429213
40
0.1910003
50
178.1984007
51
180.0231479
0
LINE
8
left_labelLayer
10
5.9648921
20
1.5919828
11
5.9648921
21
1.5610513
0
LINE
8
left_labelLayer
10
5.8450632
20
1.6353355
11
5.8450632
21
1.7941331
0
LINE
8
left_labelLayer
10
5.8450632
20
1.7941331
11
5.8068251
21
1.7941331
0
LINE
8
left_labelLayer
10
5.8068251
20
1.7941331
11
5.8068251
21
1.8136175
0
LINE
8
left_labelLayer
10
5.8068251
20
1.8136175
11
5.8450632
21
1.8304228
0
LINE
8
left_labelLayer
10
5.8450632
20
1.8304228
11
5.862112
21
1.8874146
0
LINE
8
left_labelLayer
10
5.862112
20
1.8874146
11
5.8854933
21
1.8874146
0
LINE
8
left_labelLayer
10
5.8854933
20
1.8874146
11
5.8854933
21
1.8255517
0
LINE
8
left_labelLayer
10
5.8854933
20
1.8255517
11
5.9629436
21
1.8255517
0
LINE
8
left_labelLayer
10
5.9629436
20
1.8255517
11
5.9629436
21
1.7941331
0
LINE
8
left_labelLayer
10
5.9629436
20
1.7941331
11
5.8854933
21
1.7941331
0
LINE
8
left_labelLayer
10
5.8854933
20
1.7941331
11
5.8854933
21
1.6370404
0
ARC
8
left_labelLayer
10
5.9286374
20
1.7198718
40
0.1327604
50
269.8797992
51
278.303387
0
ARC
8
left_labelLayer
10
5.9293361
20
1.7131732
40
0.1260315
50
278.4288622
51
279.0042587
0
ARC
8
left_labelLayer
10
5.9150573
20
1.8044367
40
0.2184052
50
278.9568771
51
280.5104902
0
ARC
8
left_labelLayer
10
5.9292421
20
1.7283413
40
0.140999
50
280.4837319
51
282.6290824
0
ARC
8
left_labelLayer
10
5.9416424
20
1.6732653
40
0.0845444
50
282.5894225
51
285.5800523
0
ARC
8
left_labelLayer
10
5.9490117
20
1.6463866
40
0.0566742
50
285.7020695
51
286.2724457
0
ARC
8
left_labelLayer
10
5.947883
20
1.5970313
40
0.0397979
50
287.9914886
51
295.3018456
0
ARC
8
left_labelLayer
10
5.9382998
20
1.6260262
40
0.0703351
50
283.3083151
51
288.1208091
0
ARC
8
left_labelLayer
10
5.9281918
20
1.6681774
40
0.1136812
50
280.005896
51
283.3757243
0
ARC
8
left_labelLayer
10
5.9210662
20
1.7069543
40
0.1531065
50
279.1940924
51
280.110578
0
ARC
8
left_labelLayer
10
5.9172263
20
1.7287858
40
0.1752712
50
275.5258062
51
279.2929238
0
ARC
8
left_labelLayer
10
5.9219158
20
1.6798061
40
0.1260677
50
270.8942867
51
275.54798
0
ARC
8
left_labelLayer
10
5.922523
20
1.6565678
40
0.102823
50
269.9947244
51
270.7580672
0
ARC
8
left_labelLayer
10
5.9208821
20
1.6593314
40
0.1055994
50
253.7850963
51
270.8852471
0
ARC
8
left_labelLayer
10
5.9083714
20
1.6166639
40
0.0611356
50
190.3817408
51
253.877385
0
ARC
8
left_labelLayer
10
5.9721343
20
1.6339051
40
0.1270792
50
179.3550776
51
192.8480705
0
ARC
8
left_labelLayer
10
5.9669085
20
1.6365312
40
0.0814169
50
179.6416449
51
189.7500703
0
ARC
8
left_labelLayer
10
5.9381658
20
1.6314056
40
0.0522215
50
189.5483122
51
205.7871865
0
ARC
8
left_labelLayer
10
5.9263605
20
1.6259633
40
0.039225
50
206.1309174
51
221.4064677
0
ARC
8
left_labelLayer
10
5.9250285
20
1.6249535
40
0.0375582
50
221.5950468
51
262.3509496
0
ARC
8
left_labelLayer
10
5.9281784
20
1.6411573
40
0.0540458
50
261.3277465
51
270.1913242
0
LINE
8
top_outsideCutPath
10
8.2954
20
0.243
11
8.8331
21
0.243
0
LINE
8
top_outsideCutPath
10
8.8331
20
0.243
11
8.8331
21
0.125
0
LINE
8
top_outsideCutPath
10
8.8331
20
0.125
11
9.3869
21
0.125
0
LINE
8
top_outsideCutPath
10
9.3869
20
0.125
11
9.3869
21
0.243
0
LINE
8
top_outsideCutPath
10
9.3869
20
0.243
11
9.9246
21
0.243
0
LINE
8
top_outsideCutPath
10
9.9246
20
0.243
11
9.9246
21
0.125
0
LINE
8
top_outsideCutPath
10
9.9246
20
0.125
11
10.4784
21
0.125
0
LINE
8
top_outsideCutPath
10
10.4784
20
0.125
11
10.4784
21
0.243
0
LINE
8
top_outsideCutPath
10
10.4784
20
0.243
11
11.114
21
0.243
0
LINE
8
top_outsideCutPath
10
11.114
20
0.243
11
11.114
21
0.5494
0
LINE
8
top_outsideCutPath
10
11.114
20
0.5494
11
11.232
21
0.5494
0
LINE
8
top_outsideCutPath
10
11.232
20
0.5494
11
11.232
21
1.1031
0
LINE
8
top_outsideCutPath
10
11.232
20
1.1031
11
11.114
21
1.1031
0
LINE
8
top_outsideCutPath
10
11.114
20
1.1031
11
11.114
21
1.6409
0
LINE
8
top_outsideCutPath
10
11.114
20
1.6409
11
11.232
21
1.6409
0
LINE
8
top_outsideCutPath
10
11.232
20
1.6409
11
11.232
21
2.1946
0
LINE
8
top_outsideCutPath
10
11.232
20
2.1946
11
11.114
21
2.1946
0
LINE
8
top_outsideCutPath
10
11.114
20
2.1946
11
11.114
21
2.501
0
LINE
8
top_outsideCutPath
10
11.114
20
2.501
11
10.4784
21
2.501
0
LINE
8
top_outsideCutPath
10
10.4784
20
2.501
11
10.4784
21
2.619
0
LINE
8
top_outsideCutPath
10
10.4784
20
2.619
11
9.9246
21
2.619
0
LINE
8
top_outsideCutPath
10
9.9246
20
2.619
11
9.9246
21
2.501
0
LINE
8
top_outsideCutPath
10
9.9246
20
2.501
11
9.3869
21
2.501
0
LINE
8
top_outsideCutPath
10
9.3869
20
2.501
11
9.3869
21
2.619
0
LINE
8
top_outsideCutPath
10
9.3869
20
2.619
11
8.8331
21
2.619
0
LINE
8
top_outsideCutPath
10
8.8331
20
2.619
11
8.8331
21
2.501
0
LINE
8
top_outsideCutPath
10
8.8331
20
2.501
11
8.2954
21
2.501
0
LINE
8
top_outsideCutPath
10
8.2954
20
2.501
11
8.2954
21
2.619
0
LINE
8
top_outsideCutPath
10
8.2954
20
2.619
11
7.7416
21
2.619
0
LINE
8
top_outsideCutPath
10
7.7416
20
2.619
11
7.7416
21
2.501
0
LINE
8
top_outsideCutPath
10
7.7416
20
2.501
11
7.106
21
2.501
0
LINE
8
top_outsideCutPath
10
7.106
20
2.501
11
7.106
21
2.1946
0
LINE
8
top_outsideCutPath
10
7.106
20
2.1946
11
6.988
21
2.1946
0
LINE
8
top_outsideCutPath
10
6.988
20
2.1946
11
6.988
21
1.6409
0
LINE
8
top_outsideCutPath
10
6.988
20
1.6409
11
7.106
21
1.6409
0
LINE
8
top_outsideCutPath
10
7.106
20
1.6409
11
7.106
21
1.1031
0
LINE
8
top_outsideCutPath
10
7.106
20
1.1031
11
6.988
21
1.1031
0
LINE
8
top_outsideCutPath
10
6.988
20
1.1031
11
6.988
21
0.5494
0
LINE
8
top_outsideCutPath
10
6.988
20
0.5494
11
7.106
21
0.5494
0
LINE
8
top_outsideCutPath
10
7.106
20
0.5494
11
7.106
21
0.243
0
LINE
8
top_outsideCutPath
10
7.106
20
0.243
11
7.7416
21
0.243
0
LINE
8
top_outsideCutPath
10
7.7416
20
0.243
11
7.7416
21
0.125
0
LINE
8
top_outsideCutPath
10
7.7416
20
0.125
11
8.2954
21
0.125
0
LINE
8
top_outsideCutPath
10
8.2954
20
0.125
11
8.2954
21
0.243
0
LINE
8
top_labelLayer
10
8.8942085
20
1.300882
11
8.8942085
21
1.2699506
0
LINE
8
top_labelLayer
10
8.7743796
20
1.3442348
11
8.7743796
21
1.5030324
0
LINE
8
top_labelLayer
10
8.7743796
20
1.5030324
11
8.7361415
21
1.5030324
0
LINE
8
top_labelLayer
10
8.7361415
20
1.5030324
11
8.7361415
21
1.5225168
0
LINE
8
top_labelLayer
10
8.7361415
20
1.5225168
11
8.7743796
21
1.5393221
0
LINE
8
top_labelLayer
10
8.7743796
20
1.5393221
11
8.7914284
21
1.5963139
0
LINE
8
top_labelLayer
10
8.7914284
20
1.5963139
11
8.8148097
21
1.5963139
0
LINE
8
top_labelLayer
10
8.8148097
20
1.5963139
11
8.8148097
21
1.534451
0
LINE
8
top_labelLayer
10
8.8148097
20
1.534451
11
8.89226
21
1.534451
0
LINE
8
top_labelLayer
10
8.89226
20
1.534451
11
8.89226
21
1.5030324
0
LINE
8
top_labelLayer
10
8.89226
20
1.5030324
11
8.8148097
21
1.5030324
0
LINE
8
top_labelLayer
10
8.8148097
20
1.5030324
11
8.8148097
21
1.3459396
0
ARC
8
top_labelLayer
10
8.8579538
20
1.4287711
40
0.1327604
50
269.8797992
51
278.303387
0
ARC
8
top_labelLayer
10
8.8586525
20
1.4220725
40
0.1260315
50
278.4288622
51
279.0042587
0
ARC
8
top_labelLayer
10
8.8443737
20
1.513336
40
0.2184052
50
278.9568771
51
280.5104902
0
ARC
8
top_labelLayer
10
8.8585585
20
1.4372406
40
0.140999
50
280.4837319
51
282.6290824
0
ARC
8
top_labelLayer
10
8.8709588
20
1.3821646
40
0.0845444
50
282.5894225
51
285.5800523
0
ARC
8
top_labelLayer
10
8.8783281
20
1.3552858
40
0.0566742
50
285.7020695
51
286.2724457
0
ARC
8
top_labelLayer
10
8.8771994
20
1.3059306
40
0.0397979
50
287.9914886
51
295.3018456
0
ARC
8
top_labelLayer
10
8.8676162
20
1.3349254
40
0.0703351
50
283.3083151
51
288.1208091
0
ARC
8
top_labelLayer
10
8.8575082
20
1.3770767
40
0.1136812
50
280.005896
51
283.3757243
0
ARC
8
top_labelLayer
10
8.8503826
20
1.4158536
40
0.1531065
50
279.1940924
51
280.110578
0
ARC
8
top_labelLayer
10
8.8465427
20
1.4376851
40
0.1752712
50
275.5258062
51
279.2929238
0
ARC
8
top_labelLayer
10
8.8512322
20
1.3887053
40
0.1260677
50
270.8942867
51
275.54798
0
ARC
8
top_labelLayer
10
8.8518394
20
1.3654671
40
0.102823
50
269.9947244
51
270.7580672
0
ARC
8
top_labelLayer
10
8.8501985
20
1.3682307
40
0.1055994
50
253.7850963
51
270.8852471
0
ARC
8
top_labelLayer
10
8.8376878
20
1.3255632
40
0.0611356
50
190.3817408
51
253.877385
0
ARC
8
top_labelLayer
10
8.9014507
20
1.3428044
40
0.1270792
50
179.3550776
51
192.8480705
0
ARC
8
top_labelLayer
10
8.8962249
20
1.3454304
40
0.0814169
50
179.6416449
51
189.7500703
0
ARC
8
top_labelLayer
10
8.8674822
20
1.3403049
40
0.0522215
50
189.5483122
51
205.7871865
0
ARC
8
top_labelLayer
10
8.8556769
20
1.3348626
40
0.039225
50
206.1309174
51
221.4064677
0
ARC
8
top_labelLayer
10
8.8543449
20
1.3338528
40
0.0375582
50
221.5950468
51
262.3509496
0
ARC
8
top_labelLayer
10
8.8574948
20
1.3500566
40
0.0540458
50
261.3277465
51
270.1913242
0
ARC
8
top_labelLayer
10
8.9691245
20
1.3998177
40
0.20883
50
349.1760347
51
0.386536
0
ARC
8
top_labelLayer
10
9.0394306
20
1.3858009
40
0.1371435
50
330.2504625
51
349.4118887
0
ARC
8
top_labelLayer
10
9.0610835
20
1.3745424
40
0.1127621
50
318.1427822
51
329.757719
0
ARC
8
top_labelLayer
10
9.064971
20
1.3714254
40
0.107787
50
278.8958235
51
317.9979612
0
ARC
8
top_labelLayer
10
9.0549071
20
1.4196451
40
0.1570027
50
269.750681
51
279.8031783
0
ARC
8
top_labelLayer
10
9.0532768
20
1.3924762
40
0.1298357
50
253.5438598
51
270.4179617
0
ARC
8
top_labelLayer
10
9.0489533
20
1.3757514
40
0.1125729
50
238.811098
51
253.2428225
0
ARC
8
top_labelLayer
10
9.0475608
20
1.3729512
40
0.1094567
50
207.7950439
51
238.6755933
0
ARC
8
top_labelLayer
10
9.0673969
20
1.385116
40
0.1326852
50
205.6534022
51
208.4477074
0
ARC
8
top_labelLayer
10
9.0829922
20
1.3916314
40
0.1495666
50
188.9102048
51
205.3168921
0
ARC
8
top_labelLayer
10
9.1349374
20
1.4004293
40
0.2022487
50
179.7741309
51
189.0932505
0
ARC
8
top_labelLayer
10
9.1426061
20
1.4026483
40
0.2099208
50
169.2441847
51
180.3880525
0
ARC
8
top_labelLayer
10
9.0713185
20
1.4167398
40
0.1372569
50
150.710987
51
169.4695624
0
ARC
8
top_labelLayer
10
9.0485741
20
1.4284175
40
0.1117112
50
138.176624
51
150.2278512
0
ARC
8
top_labelLayer
10
9.044777
20
1.4313309
40
0.1069394
50
99.1759585
51
137.9832112
0
ARC
8
top_labelLayer
10
9.055195
20
1.3823124
40
0.1570114
50
89.7322259
51
100.0765586
0
ARC
8
top_labelLayer
10
9.0572785
20
1.4034712
40
0.1358576
50
73.5225394
51
90.5692064
0
ARC
8
top_labelLayer
10
9.0652463
20
1.4324213
40
0.1058379
50
41.1443482
51
73.2135914
0
ARC
8
top_labelLayer
10
9.0500362
20
1.4193482
40
0.1258935
50
13.5014791
51
41.0702102
0
ARC
8
top_labelLayer
10
8.9912858
20
1.4039729
40
0.1866142
50
1.1275731
51
13.8803281
0
ARC
8
top_labelLayer
10
8.9408736
20
1.4012674
40
0.2370759
50
359.9901341
51
1.5415612
0
ARC
8
top_labelLayer
10
9.1793054
20
1.4001746
40
0.2047266
50
179.7056008
51
187.9161402
0
ARC
8
top_labelLayer
10
9.1042259
20
1.3893897
40
0.1288776
50
187.7641259
51
200.0977648
0
ARC
8
top_labelLayer
10
9.0628574
20
1.3742323
40
0.0848197
50
200.084742
51
216.9132787
0
ARC
8
top_labelLayer
10
9.0477509
20
1.3634452
40
0.0662642
50
217.300851
51
261.7102193
0
ARC
8
top_labelLayer
10
9.0547641
20
1.3969087
40
0.1004116
50
260.5032305
51
270.2476746
0
ARC
8
top_labelLayer
10
9.0561027
20
1.390405
40
0.0939113
50
269.4481222
51
284.7251043
0
ARC
8
top_labelLayer
10
9.0635371
20
1.3628314
40
0.0653537
50
284.5659957
51
322.6332334
0
ARC
8
top_labelLayer
10
9.0461521
20
1.3753901
40
0.0867946
50
323.0094508
51
342.6387924
0
ARC
8
top_labelLayer
10
8.9964367
20
1.3916383
40
0.1390951
50
342.361529
51
353.7534043
0
ARC
8
top_labelLayer
10
8.9230913
20
1.4004796
40
0.2129685
50
353.535957
51
0.2009705
0
ARC
8
top_labelLayer
10
8.9343556
20
1.4022575
40
0.2017054
50
359.7071553
51
7.8978207
0
ARC
8
top_labelLayer
10
9.0082098
20
1.4128479
40
0.1270969
50
7.7437025
51
20.0686579
0
ARC
8
top_labelLayer
10
9.0493808
20
1.4279559
40
0.0832414
50
20.0252971
51
37.4351269
0
ARC
8
top_labelLayer
10
9.0630381
20
1.4376473
40
0.0665086
50
37.9574838
51
80.4004961
0
ARC
8
top_labelLayer
10
9.0552751
20
1.4030115
40
0.1019711
50
79.3449781
51
90.3169284
0
ARC
8
top_labelLayer
10
9.053838
20
1.4087721
40
0.0962127
50
89.4800898
51
103.8809326
0
ARC
8
top_labelLayer
10
9.0457538
20
1.4395532
40
0.0643928
50
103.4684302
51
142.3118717
0
ARC
8
top_labelLayer
10
9.0614733
20
1.4284989
40
0.083595
50
142.9030497
51
162.3750202
0
ARC
8
top_labelLayer
10
9.1109899
20
1.4119959
40
0.1357862
50
162.0646965
51
173.1675216
0
ARC
8
top_labelLayer
10
9.188192
20
1.4021468
40
0.2136125
50
173.0080243
51
180.2468235
0
LINE
8
top_labelLayer
10
9.2892542
20
1.3018563
11
9.2863315
21
1.3018563
0
LINE
8
top_labelLayer
10
9.2892542
20
1.2575293
11
9.2892542
21
1.1476861
0
LINE
8
top_labelLayer
10
9.2892542
20
1.1476861
11
9.2488241
21
1.1476861
0
LINE
8
top_labelLayer
10
9.2488241
20
1.1476861
11
9.2488241
21
1.534451
0
LINE
8
top_labelLayer
10
9.2488241
20
1.534451
11
9.281704
21
1.534451
0
LINE
8
top_labelLayer
10
9.281704
20
1.534451
11
9.2873057
21
1.4979178
0
LINE
8
top_labelLayer
10
9.2873057
20
1.4979178
11
9.2892542
21
1.4979178
0
LINE
8
top_labelLayer
10
9.2892542
20
1.4102381
11
9.2892542
21
1.4012266
0
ARC
8
top_labelLayer
10
9.3723543
20
1.3852734
40
0.1226314
50
255.7757258
51
270.3189567
0
ARC
8
top_labelLayer
10
9.3688571
20
1.3697321
40
0.1067079
50
245.9805548
51
255.5454844
0
ARC
8
top_labelLayer
10
9.3620772
20
1.3539633
40
0.0895451
50
215.5848577
51
245.8360592
0
ARC
8
top_labelLayer
10
8.9067168
20
1.2538871
40
0.3826335
50
2.9502965
51
7.2018854
0
ARC
8
top_labelLayer
10
8.9684732
20
1.257347
40
0.320781
50
0.0325581
51
2.9008594
0
ARC
8
top_labelLayer
10
9.3783132
20
1.4353714
40
0.1088281
50
132.3564029
51
144.9195258
0
ARC
8
top_labelLayer
10
9.3616422
20
1.4535592
40
0.0841561
50
115.4006792
51
132.3118215
0
ARC
8
top_labelLayer
10
9.368144
20
1.4377326
40
0.1012457
50
97.7063542
51
114.8825823
0
ARC
8
top_labelLayer
10
9.372688
20
1.408254
40
0.1310685
50
89.8474509
51
97.9468036
0
ARC
8
top_labelLayer
10
9.3742877
20
1.4153993
40
0.1239291
50
74.1921382
51
90.5782275
0
ARC
8
top_labelLayer
10
9.3828634
20
1.4465722
40
0.0915994
50
38.0523612
51
74.0417065
0
ARC
8
top_labelLayer
10
9.3592129
20
1.4284444
40
0.121397
50
16.3356952
51
37.9093565
0
ARC
8
top_labelLayer
10
9.2970816
20
1.4093077
40
0.1864045
50
4.576413
51
16.6088944
0
ARC
8
top_labelLayer
10
9.2205576
20
1.4016845
40
0.2632971
50
359.9003405
51
4.9013311
0
ARC
8
top_labelLayer
10
9.2468194
20
1.3998269
40
0.2370391
50
350.6560922
51
0.3383278
0
ARC
8
top_labelLayer
10
9.3294565
20
1.3857691
40
0.1532167
50
335.830137
51
350.8259565
0
ARC
8
top_labelLayer
10
9.365799
20
1.370082
40
0.1136386
50
321.3161674
51
335.5436166
0
ARC
8
top_labelLayer
10
9.3796963
20
1.3587582
40
0.0957127
50
274.0642126
51
321.4079491
0
ARC
8
top_labelLayer
10
9.3732223
20
1.3997406
40
0.1370969
50
269.9225727
51
275.5493158
0
ARC
8
top_labelLayer
10
9.36636
20
1.3884758
40
0.116508
50
89.5909916
51
100.3495116
0
ARC
8
top_labelLayer
10
9.3580327
20
1.4321937
40
0.0720062
50
100.0807026
51
118.2691563
0
ARC
8
top_labelLayer
10
9.3495283
20
1.4487408
40
0.0534059
50
118.6412995
51
141.0275888
0
ARC
8
top_labelLayer
10
9.3625043
20
1.4395813
40
0.0692628
50
141.8880405
51
160.5978486
0
ARC
8
top_labelLayer
10
9.408084
20
1.4228561
40
0.1178117
50
160.2895476
51
171.2450194
0
ARC
8
top_labelLayer
10
9.4829932
20
1.4107786
40
0.1936871
50
171.0867989
51
178.3253447
0
ARC
8
top_labelLayer
10
9.5465452
20
1.4077552
40
0.257303
50
178.0659417
51
179.4470984
0
ARC
8
top_labelLayer
10
9.556574
20
1.4001828
40
0.2673219
50
179.7762812
51
185.7075063
0
ARC
8
top_labelLayer
10
9.4511638
20
1.3893211
40
0.1613544
50
185.5921666
51
194.2054971
0
ARC
8
top_labelLayer
10
9.3836665
20
1.3718027
40
0.091623
50
193.9436131
51
208.0217628
0
ARC
8
top_labelLayer
10
9.356358
20
1.3579111
40
0.0609922
50
208.5540696
51
217.5589002
0
ARC
8
top_labelLayer
10
9.3541203
20
1.3569784
40
0.058653
50
218.1690767
51
253.804786
0
ARC
8
top_labelLayer
10
9.3649982
20
1.3905165
40
0.0939006
50
253.138413
51
266.848941
0
ARC
8
top_labelLayer
10
9.3680531
20
1.4265319
40
0.130034
50
266.3772434
51
270.0497132
0
ARC
8
top_labelLayer
10
9.369086
20
1.364618
40
0.0681261
50
269.2261372
51
292.0424708
0
ARC
8
top_labelLayer
10
9.3700061
20
1.3591367
40
0.0627118
50
293.1427542
51
324.1355098
0
ARC
8
top_labelLayer
10
9.3565711
20
1.3705401
40
0.0802922
50
323.1577055
51
325.0177433
0
ARC
8
top_labelLayer
10
9.3417259
20
1.3797675
40
0.0977501
50
325.5751181
51
344.1501747
0
ARC
8
top_labelLayer
10
9.291143
20
1.3947201
40
0.1504946
50
343.9334916
51
355.1136464
0
ARC
8
top_labelLayer
10
9.2265766
20
1.40127
40
0.2153867
50
354.8406266
51
0.1180216
0
ARC
8
top_labelLayer
10
9.2379547
20
1.4027446
40
0.2040109
50
359.7104762
51
7.8611405
0
ARC
8
top_labelLayer
10
9.3121153
20
1.4133152
40
0.1291018
50
7.7154906
51
19.8854829
0
ARC
8
top_labelLayer
10
9.3529254
20
1.4280551
40
0.0857114
50
19.8989679
51
35.8981144
0
ARC
8
top_labelLayer
10
9.3711226
20
1.4418368
40
0.0628916
50
35.4478798
51
85.2270152
0
ARC
8
top_labelLayer
10
9.3673205
20
1.4179932
40
0.0869877
50
84.0381278
51
90.0848627
0
LINE
8
back_outsideCutPath
10
0.7616
20
3.612
11
1.2994
21
3.612
0
LINE
8
back_outsideCutPath
10
1.2994
20
3.612
11
1.2994
21
3.494
0
LINE
8
back_outsideCutPath
10
1.2994
20
3.494
11
1.8531
21
3.494
0
LINE
8
back_outsideCutPath
10
1.8531
20
3.494
11
1.8531
21
3.612
0
LINE
8
back_outsideCutPath
10
1.8531
20
3.612
11
2.3909
21
3.612
0
LINE
8
back_outsideCutPath
10
2.3909
20
3.612
11
2.3909
21
3.494
0
LINE
8
back_outsideCutPath
10
2.3909
20
3.494
11
2.9446
21
3.494
0
LINE
8
back_outsideCutPath
10
2.9446
20
3.494
11
2.9446
21
3.612
0
LINE
8
back_outsideCutPath
10
2.9446
20
3.612
11
3.4824
21
3.612
0
LINE
8
back_outsideCutPath
10
3.4824
20
3.612
11
3.4824
21
3.494
0
LINE
8
back_outsideCutPath
10
3.4824
20
3.494
11
4.244
21
3.494
0
LINE
8
back_outsideCutPath
10
4.244
20
3.494
11
4.244
21
4.3014
0
LINE
8
back_outsideCutPath
10
4.244
20
4.3014
11
4.126
21
4.3014
0
LINE
8
back_outsideCutPath
10
4.126
20
4.3014
11
4.126
21
4.8391
0
LINE
8
back_outsideCutPath
10
4.126
20
4.8391
11
4.244
21
4.8391
0
LINE
8
back_outsideCutPath
10
4.244
20
4.8391
11
4.244
21
5.3929
0
LINE
8
back_outsideCutPath
10
4.244
20
5.3929
11
4.126
21
5.3929
0
LINE
8
back_outsideCutPath
10
4.126
20
5.3929
11
4.126
21
5.9306
0
LINE
8
back_outsideCutPath
10
4.126
20
5.9306
11
4.244
21
5.9306
0
LINE
8
back_outsideCutPath
10
4.244
20
5.9306
11
4.244
21
6.738
0
LINE
8
back_outsideCutPath
10
4.244
20
6.738
11
3.4824
21
6.738
0
LINE
8
back_outsideCutPath
10
3.4824
20
6.738
11
3.4824
21
6.62
0
LINE
8
back_outsideCutPath
10
3.4824
20
6.62
11
2.9446
21
6.62
0
LINE
8
back_outsideCutPath
10
2.9446
20
6.62
11
2.9446
21
6.738
0
LINE
8
back_outsideCutPath
10
2.9446
20
6.738
11
2.3909
21
6.738
0
LINE
8
back_outsideCutPath
10
2.3909
20
6.738
11
2.3909
21
6.62
0
LINE
8
back_outsideCutPath
10
2.3909
20
6.62
11
1.8531
21
6.62
0
LINE
8
back_outsideCutPath
10
1.8531
20
6.62
11
1.8531
21
6.738
0
LINE
8
back_outsideCutPath
10
1.8531
20
6.738
11
1.2994
21
6.738
0
LINE
8
back_outsideCutPath
10
1.2994
20
6.738
11
1.2994
21
6.62
0
LINE
8
back_outsideCutPath
10
1.2994
20
6.62
11
0.7616
21
6.62
0
LINE
8
back_outsideCutPath
10
0.7616
20
6.62
11
0.7616
21
6.738
0
LINE
8
back_outsideCutPath
10
0.7616
20
6.738
11
0
21
6.738
0
LINE
8
back_outsideCutPath
10
0
20
6.738
11
0
21
5.9306
0
LINE
8
back_outsideCutPath
10
0
20
5.9306
11
0.118
21
5.9306
0
LINE
8
back_outsideCutPath
10
0.118
20
5.9306
11
0.118
21
5.3929
0
LINE
8
back_outsideCutPath
10
0.118
20
5.3929
11
0
21
5.3929
0
LINE
8
back_outsideCutPath
10
0
20
5.3929
11
0
21
4.8391
0
LINE
8
back_outsideCutPath
10
0
20
4.8391
11
0.118
21
4.8391
0
LINE
8
back_outsideCutPath
10
0.118
20
4.8391
11
0.118
21
4.3014
0
LINE
8
back_outsideCutPath
10
0.118
20
4.3014
11
0
21
4.3014
0
LINE
8
back_outsideCutPath
10
0
20
4.3014
11
0
21
3.494
0
LINE
8
back_outsideCutPath
10
0
20
3.494
11
0.7616
21
3.494
0
LINE
8
back_outsideCutPath
10
0.7616
20
3.494
11
0.7616
21
3.612
0
LINE
8
back_labelLayer
10
1.5020285
20
4.9173719
11
1.498227
21
4.9173719
0
LINE
8
back_labelLayer
10
1.498227
20
4.9173719
11
1.4871391
21
4.8727036
0
LINE
8
back_labelLayer
10
1.4871391
20
4.8727036
11
1.4494402
21
4.8727036
0
LINE
8
back_labelLayer
10
1.4494402
20
4.8727036
11
1.4494402
21
5.3656395
0
LINE
8
back_labelLayer
10
1.4494402
20
5.3656395
11
1.5020285
21
5.3656395
0
LINE
8
back_labelLayer
10
1.5020285
20
5.3656395
11
1.5020285
21
5.2458903
0
LINE
8
back_labelLayer
10
1.4994941
20
5.1736606
11
1.5020285
21
5.1736606
0
ARC
8
back_labelLayer
10
1.6125835
20
5.0648927
40
0.1607303
50
74.2393027
51
90.56211
0
ARC
8
back_labelLayer
10
1.6232128
20
5.1038849
40
0.1203176
50
38.5629495
51
74.0672285
0
ARC
8
back_labelLayer
10
1.5958617
20
5.0826178
40
0.154962
50
16.4707814
51
38.4073996
0
ARC
8
back_labelLayer
10
1.5170723
20
5.0579102
40
0.2375275
50
5.1339666
51
16.7975864
0
ARC
8
back_labelLayer
10
1.417585
20
5.0473443
40
0.3375649
50
359.8779235
51
5.40909
0
ARC
8
back_labelLayer
10
1.446817
20
5.044806
40
0.3083376
50
350.6562891
51
0.3380322
0
ARC
8
back_labelLayer
10
1.5543014
20
5.0265249
40
0.1993121
50
335.8309159
51
350.8252378
0
ARC
8
back_labelLayer
10
1.6015931
20
5.0061141
40
0.1478109
50
321.316075
51
335.5436434
0
ARC
8
back_labelLayer
10
1.6196692
20
4.9913843
40
0.1244943
50
274.0639354
51
321.4082075
0
ARC
8
back_labelLayer
10
1.6112496
20
5.0446923
40
0.1783248
50
269.9219335
51
275.5486779
0
ARC
8
back_labelLayer
10
1.6101199
20
5.0258797
40
0.1595146
50
255.7757783
51
270.3185229
0
ARC
8
back_labelLayer
10
1.6055715
20
5.0056635
40
0.1388016
50
245.9805947
51
255.545222
0
ARC
8
back_labelLayer
10
1.5967502
20
4.9851483
40
0.1164725
50
215.5849332
51
245.8363554
0
ARC
8
back_labelLayer
10
0.4059283
20
5.2449578
40
1.0961006
50
358.112055
51
0.0487443
0
ARC
8
back_labelLayer
10
0.710941
20
5.2347076
40
0.7909158
50
355.7236617
51
358.1262563
0
ARC
8
back_labelLayer
10
0.7999913
20
5.2290195
40
0.7016899
50
355.4750243
51
355.6446241
0
ARC
8
back_labelLayer
10
1.6001036
20
5.1052702
40
0.1195657
50
95.1836196
51
145.1109078
0
ARC
8
back_labelLayer
10
1.6106143
20
5.0460055
40
0.1796104
50
89.8748283
51
96.8149606
0
ARC
8
back_labelLayer
10
1.6023025
20
5.033802
40
0.1477826
50
89.5731379
51
100.7320459
0
ARC
8
back_labelLayer
10
1.5913623
20
5.0890798
40
0.0914355
50
100.4467743
51
119.6702887
0
ARC
8
back_labelLayer
10
1.5812185
20
5.1080438
40
0.069939
50
120.1401534
51
142.4246917
0
ARC
8
back_labelLayer
10
1.5980026
20
5.0969413
40
0.090023
50
143.3384681
51
161.2560032
0
ARC
8
back_labelLayer
10
1.6681951
20
5.0720214
40
0.1645038
50
160.8928806
51
171.2330139
0
ARC
8
back_labelLayer
10
1.7853419
20
5.0531228
40
0.2831635
50
171.0665392
51
177.8455906
0
ARC
8
back_labelLayer
10
1.9072836
20
5.0469212
40
0.4052553
50
177.617524
51
180.0418639
0
ARC
8
back_labelLayer
10
1.8497218
20
5.0452656
40
0.347696
50
179.7759717
51
185.7074605
0
ARC
8
back_labelLayer
10
1.7126489
20
5.0311417
40
0.2098983
50
185.5922548
51
194.2047208
0
ARC
8
back_labelLayer
10
1.6248226
20
5.008348
40
0.1191651
50
193.9425077
51
208.0219739
0
ARC
8
back_labelLayer
10
1.5892896
20
4.9902701
40
0.0793078
50
208.5531299
51
217.5609213
0
ARC
8
back_labelLayer
10
1.5864016
20
4.989071
40
0.0762918
50
218.1692285
51
253.8046602
0
ARC
8
back_labelLayer
10
1.6005511
20
5.0326955
40
0.1221399
50
253.1382705
51
266.8486491
0
ARC
8
back_labelLayer
10
1.604517
20
5.0793832
40
0.1689808
50
266.3762128
51
270.0520988
0
ARC
8
back_labelLayer
10
1.6057925
20
5.0152286
40
0.1048322
50
269.3868538
51
285.8633446
0
ARC
8
back_labelLayer
10
1.6135801
20
4.9870829
40
0.0756301
50
286.0167094
51
326.8494177
0
ARC
8
back_labelLayer
10
1.5759935
20
5.0119829
40
0.1207157
50
326.7102421
51
343.6665287
0
ARC
8
back_labelLayer
10
1.5056132
20
5.0334883
40
0.1943053
50
343.4174694
51
353.6368567
0
ARC
8
back_labelLayer
10
1.399358
20
5.0460973
40
0.3013044
50
353.493277
51
0.2208511
0
ARC
8
back_labelLayer
10
1.3899927
20
5.048518
40
0.31067
50
359.7677515
51
6.3097464
0
ARC
8
back_labelLayer
10
1.5069843
20
5.0619437
40
0.1929122
50
6.165224
51
16.0392126
0
ARC
8
back_labelLayer
10
1.5823949
20
5.0841659
40
0.1142984
50
15.7777235
51
32.015618
0
ARC
8
back_labelLayer
10
1.605963
20
5.0976696
40
0.0871622
50
32.7024708
51
35.5257687
0
ARC
8
back_labelLayer
10
1.6144979
20
5.1037381
40
0.0766898
50
35.5410467
51
79.8010698
0
ARC
8
back_labelLayer
10
1.6042004
20
5.0599637
40
0.1216194
50
78.6779549
51
90.3754111
0
LINE
8
back_labelLayer
10
2.0995074
20
4.8727036
11
2.0605414
21
4.8727036
0
LINE
8
back_labelLayer
10
2.0605414
20
4.8727036
11
2.0500871
21
4.9221239
0
LINE
8
back_labelLayer
10
2.0500871
20
4.9221239
11
2.0475527
21
4.9221239
0
LINE
8
back_labelLayer
10
1.9892621
20
5.0789383
11
2.0481863
21
5.0808391
0
LINE
8
back_labelLayer
10
2.0481863
20
5.0808391
11
2.0481863
21
5.1023813
0
LINE
8
back_labelLayer
10
1.8761656
20
5.1556032
11
1.860009
21
5.1958364
0
LINE
8
back_labelLayer
10
2.0995074
20
5.1096676
11
2.0995074
21
4.8727036
0
LINE
8
back_labelLayer
10
2.0469191
20
5.0120942
11
2.0469191
21
5.0434571
0
LINE
8
back_labelLayer
10
2.0469191
20
5.0434571
11
1.9943309
21
5.0412395
0
ARC
8
back_labelLayer
10
1.8764815
20
5.057191
40
0.2179644
50
314.7436257
51
321.7075805
0
ARC
8
back_labelLayer
10
1.9300117
20
5.0027958
40
0.1416481
50
304.8483958
51
314.8529163
0
ARC
8
back_labelLayer
10
1.9557459
20
4.9661633
40
0.0968805
50
294.3927182
51
304.7377338
0
ARC
8
back_labelLayer
10
1.9469486
20
4.9889527
40
0.1212769
50
281.2984522
51
293.731419
0
ARC
8
back_labelLayer
10
1.9353291
20
5.0452736
40
0.178783
50
272.9337598
51
281.4138004
0
ARC
8
back_labelLayer
10
1.9314751
20
5.103081
40
0.2367136
50
269.9547703
51
273.1492377
0
ARC
8
back_labelLayer
10
1.9301483
20
5.0277498
40
0.1613862
50
258.6719421
51
270.4047272
0
ARC
8
back_labelLayer
10
1.9189381
20
4.9741243
40
0.1066044
50
238.3270427
51
258.918285
0
ARC
8
back_labelLayer
10
1.9112225
20
4.9600434
40
0.0905734
50
227.7694439
51
237.8038464
0
ARC
8
back_labelLayer
10
1.9087963
20
4.9566581
40
0.0864374
50
192.0825233
51
227.452055
0
ARC
8
back_labelLayer
10
1.953353
20
4.9676432
40
0.1323142
50
179.5453671
51
192.6953231
0
ARC
8
back_labelLayer
10
1.9119613
20
4.9724348
40
0.0909953
50
115.4905519
51
182.3566855
0
ARC
8
back_labelLayer
10
1.9575326
20
4.8888476
40
0.1861296
50
101.3568806
51
117.0799039
0
ARC
8
back_labelLayer
10
1.9941338
20
4.7177962
40
0.361046
50
92.469997
51
101.7061915
0
ARC
8
back_labelLayer
10
2.0046495
20
4.5655737
40
0.5135953
50
91.7168482
51
92.9101807
0
ARC
8
back_labelLayer
10
1.897149
20
5.1031911
40
0.1510395
50
359.692829
51
8.003441
0
ARC
8
back_labelLayer
10
1.9542872
20
5.1115151
40
0.0932991
50
7.8269167
51
20.6048177
0
ARC
8
back_labelLayer
10
1.9866117
20
5.1238817
40
0.0586908
50
20.409718
51
41.4475681
0
ARC
8
back_labelLayer
10
1.9913892
20
5.1265065
40
0.0533857
50
42.7301081
51
71.0372325
0
ARC
8
back_labelLayer
10
1.980142
20
5.0959234
40
0.0859667
50
70.5715097
51
83.9921438
0
ARC
8
back_labelLayer
10
1.9747719
20
5.0522803
40
0.1299343
50
83.651425
51
90.1760493
0
ARC
8
back_labelLayer
10
1.9757137
20
5.0110025
40
0.1712169
50
90.4487574
51
103.7667705
0
ARC
8
back_labelLayer
10
1.9958433
20
4.9261081
40
0.2584637
50
103.622458
51
112.4322029
0
ARC
8
back_labelLayer
10
2.0303548
20
4.8389632
40
0.3521863
50
112.2119993
51
115.9639586
0
ARC
8
back_labelLayer
10
1.9750897
20
4.9824208
40
0.2424661
50
106.3568012
51
118.3350163
0
ARC
8
back_labelLayer
10
1.9853052
20
4.9509285
40
0.2755622
50
104.5149294
51
106.5508362
0
ARC
8
back_labelLayer
10
1.9778443
20
4.9820762
40
0.2435394
50
90.0714461
51
104.6522898
0
ARC
8
back_labelLayer
10
1.9787989
20
5.0035104
40
0.2221085
50
81.5678372
51
90.3245841
0
ARC
8
back_labelLayer
10
1.9916399
20
5.0871681
40
0.137473
50
68.2276733
51
81.7490265
0
ARC
8
back_labelLayer
10
2.0095304
20
5.1316809
40
0.0894996
50
47.8681276
51
68.2940116
0
ARC
8
back_labelLayer
10
2.0124308
20
5.1374742
40
0.0832755
50
19.233225
51
46.6740598
0
ARC
8
back_labelLayer
10
1.9640769
20
5.1194863
40
0.1348601
50
6.3374823
51
19.6816247
0
ARC
8
back_labelLayer
10
1.8925817
20
5.1103803
40
0.2069269
50
359.8026606
51
6.6582272
0
ARC
8
back_labelLayer
10
1.9428068
20
5.0545525
40
0.1447876
50
269.5788755
51
282.0413142
0
ARC
8
back_labelLayer
10
1.9533666
20
5.0077108
40
0.0967751
50
281.7124062
51
306.4593013
0
ARC
8
back_labelLayer
10
1.9580278
20
5.0000342
40
0.0878348
50
306.9896069
51
313.8547043
0
ARC
8
back_labelLayer
10
1.9574931
20
4.9998486
40
0.088073
50
314.1892047
51
347.4268174
0
ARC
8
back_labelLayer
10
1.9133699
20
5.0109048
40
0.13355
50
346.9179716
51
0.2820987
0
ARC
8
back_labelLayer
10
1.8702755
20
5.012094
40
0.1766436
50
359.8275626
51
0.0000748
0
ARC
8
back_labelLayer
10
2.0068342
20
4.6553846
40
0.3860574
50
91.855981
51
96.4482578
0
ARC
8
back_labelLayer
10
1.9894278
20
4.805988
40
0.2344523
50
96.3547366
51
102.9954023
0
ARC
8
back_labelLayer
10
1.9657836
20
4.9064361
40
0.1312607
50
102.798749
51
113.2437792
0
ARC
8
back_labelLayer
10
1.946296
20
4.9530381
40
0.080752
50
113.5881384
51
121.6814817
0
ARC
8
back_labelLayer
10
1.9327648
20
4.9736431
40
0.0561153
50
120.9737191
51
172.4176976
0
ARC
8
back_labelLayer
10
1.9592374
20
4.9683577
40
0.0830722
50
171.2133446
51
180.2057462
0
ARC
8
back_labelLayer
10
1.9513208
20
4.9674392
40
0.0751577
50
179.5271874
51
192.7787795
0
ARC
8
back_labelLayer
10
1.9258954
20
4.9612764
40
0.0490006
50
192.3268942
51
222.0576303
0
ARC
8
back_labelLayer
10
1.923988
20
4.96013
40
0.0468185
50
222.5796854
51
229.256886
0
ARC
8
back_labelLayer
10
1.9303928
20
4.9683702
40
0.0572443
50
229.7829425
51
254.2724809
0
ARC
8
back_labelLayer
10
1.9389029
20
4.9967282
40
0.0868486
50
253.9395474
51
266.4541123
0
ARC
8
back_labelLayer
10
1.9416207
20
5.0280786
40
0.1183097
50
266.0794385
51
270.0590242
0
LINE
8
back_labelLayer
10
2.4394305
20
5.2081915
11
2.4232738
21
5.1635231
0
LINE
8
back_labelLayer
10
2.4343617
20
4.9309942
11
2.4343617
21
4.8844251
0
ARC
8
back_labelLayer
10
2.3449316
20
5.0629062
40
0.1965457
50
256.4245483
51
270.4890003
0
ARC
8
back_labelLayer
10
2.3292257
20
5.0016059
40
0.1332743
50
221.797674
51
256.802156
0
ARC
8
back_labelLayer
10
2.3444363
20
5.0128437
40
0.152114
50
196.0166183
51
221.1346897
0
ARC
8
back_labelLayer
10
2.420878
20
5.0362072
40
0.2320389
50
183.5912502
51
196.3536682
0
ARC
8
back_labelLayer
10
2.5065273
20
5.0437513
40
0.3180001
50
179.9388527
51
183.9812301
0
ARC
8
back_labelLayer
10
2.4786863
20
5.0459579
40
0.290165
50
169.8977767
51
180.3686989
0
ARC
8
back_labelLayer
10
2.3776703
20
5.0646444
40
0.1874388
50
153.0873725
51
170.1050432
0
ARC
8
back_labelLayer
10
2.339339
20
5.0829622
40
0.1449712
50
138.6547695
51
152.6858361
0
ARC
8
back_labelLayer
10
2.332192
20
5.0881702
40
0.1361676
50
101.4913446
51
138.3133385
0
ARC
8
back_labelLayer
10
2.3486145
20
5.0198174
40
0.2064368
50
89.5894378
51
102.1785958
0
ARC
8
back_labelLayer
10
2.3498765
20
4.988935
40
0.237314
50
77.7701458
51
89.9475367
0
ARC
8
back_labelLayer
10
2.3453861
20
4.964159
40
0.2624804
50
74.6796307
51
77.9578673
0
ARC
8
back_labelLayer
10
2.3696472
20
5.0520585
40
0.1712944
50
70.0938088
51
74.7379697
0
ARC
8
back_labelLayer
10
2.3927426
20
5.1153379
40
0.1039327
50
63.5023707
51
70.1875956
0
ARC
8
back_labelLayer
10
2.399712
20
5.1304284
40
0.0873193
50
62.943716
51
63.1771699
0
ARC
8
back_labelLayer
10
2.336891
20
4.946131
40
0.2339259
50
68.3291191
51
74.8833689
0
ARC
8
back_labelLayer
10
2.3245116
20
4.9022192
40
0.279547
50
74.7809874
51
77.4492745
0
ARC
8
back_labelLayer
10
2.3374984
20
4.9631686
40
0.2172327
50
77.2994659
51
81.7340333
0
ARC
8
back_labelLayer
10
2.3469515
20
5.0290301
40
0.1506963
50
81.6906972
51
87.5076921
0
ARC
8
back_labelLayer
10
2.3487754
20
5.063162
40
0.1165178
50
87.6738825
51
89.9748388
0
ARC
8
back_labelLayer
10
2.3462195
20
5.0630621
40
0.1166468
50
88.7193476
51
112.5670672
0
ARC
8
back_labelLayer
10
2.3379309
20
5.0904649
40
0.0882079
50
114.4265838
51
161.6633248
0
ARC
8
back_labelLayer
10
2.4202695
20
5.0582361
40
0.1765671
50
160.1416851
51
175.1367513
0
ARC
8
back_labelLayer
10
2.5336278
20
5.0455101
40
0.2906123
50
174.531483
51
180.1549226
0
ARC
8
back_labelLayer
10
2.4977143
20
5.0434104
40
0.2547012
50
179.7044457
51
188.0740854
0
ARC
8
back_labelLayer
10
2.4059658
20
5.0299878
40
0.1619775
50
187.9314631
51
200.3882219
0
ARC
8
back_labelLayer
10
2.3563625
20
5.011614
40
0.1090805
50
200.4186781
51
216.6393477
0
ARC
8
back_labelLayer
10
2.3355671
20
4.9967477
40
0.0835238
50
216.9695689
51
261.3103314
0
ARC
8
back_labelLayer
10
2.3447429
20
5.0395221
40
0.1272203
50
260.1356806
51
270.269714
0
ARC
8
back_labelLayer
10
2.3443204
20
5.1324419
40
0.2201411
50
270.2658274
51
286.2891139
0
ARC
8
back_labelLayer
10
2.3309284
20
5.1823774
40
0.2718307
50
286.0463778
51
292.3650571
0
ARC
8
back_labelLayer
10
2.3665801
20
5.0177653
40
0.1495794
50
282.0341887
51
296.9458702
0
ARC
8
back_labelLayer
10
2.3511914
20
5.0871217
40
0.2206207
50
272.5985034
51
282.187401
0
ARC
8
back_labelLayer
10
2.3467865
20
5.1546284
40
0.2882608
50
269.9647151
51
272.8648181
0
LINE
8
back_labelLayer
10
2.5661492
20
5.0504266
11
2.5686836
21
5.0504266
0
LINE
8
back_labelLayer
10
2.610184
20
5.1011141
11
2.7223301
21
5.219913
0
LINE
8
back_labelLayer
10
2.7223301
20
5.219913
11
2.7847391
21
5.219913
0
LINE
8
back_labelLayer
10
2.7847391
20
5.219913
11
2.6440813
21
5.0719688
0
LINE
8
back_labelLayer
10
2.6440813
20
5.0719688
11
2.7945598
21
4.8727036
0
LINE
8
back_labelLayer
10
2.7945598
20
4.8727036
11
2.7308836
21
4.8727036
0
LINE
8
back_labelLayer
10
2.7308836
20
4.8727036
11
2.6082832
21
5.0368044
0
LINE
8
back_labelLayer
10
2.6082832
20
5.0368044
11
2.5686836
21
5.0025903
0
LINE
8
back_labelLayer
10
2.5686836
20
5.0025903
11
2.5686836
21
4.8727036
0
LINE
8
back_labelLayer
10
2.5686836
20
4.8727036
11
2.5167289
21
4.8727036
0
LINE
8
back_labelLayer
10
2.5167289
20
4.8727036
11
2.5167289
21
5.3656395
0
LINE
8
back_labelLayer
10
2.5167289
20
5.3656395
11
2.5686836
21
5.3656395
0
LINE
8
back_labelLayer
10
2.5686836
20
5.3656395
11
2.5686836
21
5.1042821
0
ARC
8
back_labelLayer
10
2.8229384
20
4.8704459
40
0.3115101
50
142.3235942
51
144.706259
0
ARC
8
back_labelLayer
10
2.9884287
20
4.7427988
40
0.5205099
50
140.4325276
51
142.3366209
0
ARC
8
back_labelLayer
10
3.2052525
20
4.564303
40
0.8013535
50
139.2802262
51
140.4694136
0
ARC
8
back_labelLayer
10
3.4536599
20
4.3507008
40
1.1289694
50
138.3415401
51
139.288343
0
ARC
8
back_labelLayer
10
2.2182435
20
5.1049379
40
0.3504407
50
358.2739163
51
359.8927752
0
ARC
8
back_labelLayer
10
1.9465882
20
5.1124932
40
0.6222007
50
357.5041284
51
358.3319952
0
ARC
8
back_labelLayer
10
1.5362022
20
5.130632
40
1.0329871
50
356.6328678
51
357.4902441
0
ARC
8
back_labelLayer
10
0.8629184
20
5.1698771
40
1.7074137
50
356.0325369
51
356.6451876
0
ARC
8
back_labelLayer
10
0.3037423
20
5.2080409
40
2.2678903
50
356.0148339
51
356.0481248
0
LINE
8
right_outsideCutPath
10
4.8014
20
3.612
11
5.3391
21
3.612
0
LINE
8
right_outsideCutPath
10
5.3391
20
3.612
11
5.3391
21
3.494
0
LINE
8
right_outsideCutPath
10
5.3391
20
3.494
11
5.8929
21
3.494
0
LINE
8
right_outsideCutPath
10
5.8929
20
3.494
11
5.8929
21
3.612
0
LINE
8
right_outsideCutPath
10
5.8929
20
3.612
11
6.4306
21
3.612
0
LINE
8
right_outsideCutPath
10
6.4306
20
3.612
11
6.4306
21
3.494
0
LINE
8
right_outsideCutPath
10
6.4306
20
3.494
11
6.745
21
3.494
0
LINE
8
right_outsideCutPath
10
6.745
20
3.494
11
6.745
21
4.2934
0
LINE
8
right_outsideCutPath
10
6.745
20
4.2934
11
6.863
21
4.2934
0
LINE
8
right_outsideCutPath
10
6.863
20
4.2934
11
6.863
21
4.8471
0
LINE
8
right_outsideCutPath
10
6.863
20
4.8471
11
6.745
21
4.8471
0
LINE
8
right_outsideCutPath
10
6.745
20
4.8471
11
6.745
21
5.3849
0
LINE
8
right_outsideCutPath
10
6.745
20
5.3849
11
6.863
21
5.3849
0
LINE
8
right_outsideCutPath
10
6.863
20
5.3849
11
6.863
21
5.9386
0
LINE
8
right_outsideCutPath
10
6.863
20
5.9386
11
6.745
21
5.9386
0
LINE
8
right_outsideCutPath
10
6.745
20
5.9386
11
6.745
21
6.738
0
LINE
8
right_outsideCutPath
10
6.745
20
6.738
11
6.4306
21
6.738
0
LINE
8
right_outsideCutPath
10
6.4306
20
6.738
11
6.4306
21
6.62
0
LINE
8
right_outsideCutPath
10
6.4306
20
6.62
11
5.8929
21
6.62
0
LINE
8
right_outsideCutPath
10
5.8929
20
6.62
11
5.8929
21
6.738
0
LINE
8
right_outsideCutPath
10
5.8929
20
6.738
11
5.3391
21
6.738
0
LINE
8
right_outsideCutPath
10
5.3391
20
6.738
11
5.3391
21
6.62
0
LINE
8
right_outsideCutPath
10
5.3391
20
6.62
11
4.8014
21
6.62
0
LINE
8
right_outsideCutPath
10
4.8014
20
6.62
11
4.8014
21
6.738
0
LINE
8
right_outsideCutPath
10
4.8014
20
6.738
11
4.487
21
6.738
0
LINE
8
right_outsideCutPath
10
4.487
20
6.738
11
4.487
21
5.9386
0
LINE
8
right_outsideCutPath
10
4.487
20
5.9386
11
4.369
21
5.9386
0
LINE
8
right_outsideCutPath
10
4.369
20
5.9386
11
4.369
21
5.3849
0
LINE
8
right_outsideCutPath
10
4.369
20
5.3849
11
4.487
21
5.3849
0
LINE
8
right_outsideCutPath
10
4.487
20
5.3849
11
4.487
21
4.8471
0
LINE
8
right_outsideCutPath
10
4.487
20
4.8471
11
4.369
21
4.8471
0
LINE
8
right_outsideCutPath
10
4.369
20
4.8471
11
4.369
21
4.2934
0
LINE
8
right_outsideCutPath
10
4.369
20
4.2934
11
4.487
21
4.2934
0
LINE
8
right_outsideCutPath
10
4.487
20
4.2934
11
4.487
21
3.494
0
LINE
8
right_outsideCutPath
10
4.487
20
3.494
11
4.8014
21
3.494
0
LINE
8
right_outsideCutPath
10
4.8014
20
3.494
11
4.8014
21
3.612
0
LINE
8
right_labelLayer
10
5.2537124
20
5.2553148
11
5.2481106
21
5.2178074
0
LINE
8
right_labelLayer
10
5.1404595
20
5.1296406
11
5.1404595
21
4.9864304
0
LINE
8
right_labelLayer
10
5.1404595
20
4.9864304
11
5.1000294
21
4.9864304
0
LINE
8
right_labelLayer
10
5.1000294
20
4.9864304
11
5.1000294
21
5.2533664
0
LINE
8
right_labelLayer
10
5.1000294
20
5.2533664
11
5.1333964
21
5.2533664
0
LINE
8
right_labelLayer
10
5.1333964
20
5.2533664
11
5.1380239
21
5.2039248
0
LINE
8
right_labelLayer
10
5.1380239
20
5.2039248
11
5.1399724
21
5.2039248
0
ARC
8
right_labelLayer
10
5.2222218
20
5.0726303
40
0.1856076
50
84.9922974
51
90.1281226
0
ARC
8
right_labelLayer
10
5.226676
20
5.1225579
40
0.1354818
50
78.4889482
51
85.0257414
0
ARC
8
right_labelLayer
10
5.2093677
20
5.0438266
40
0.1782423
50
77.4459179
51
81.635252
0
ARC
8
right_labelLayer
10
5.2171476
20
5.0974482
40
0.1240594
50
81.5874832
51
87.193185
0
ARC
8
right_labelLayer
10
5.2188322
20
5.1267509
40
0.0947098
50
87.3430204
51
89.9686166
0
ARC
8
right_labelLayer
10
5.2184361
20
5.1514085
40
0.0700537
50
89.6335752
51
137.0879282
0
ARC
8
right_labelLayer
10
5.2356847
20
5.132024
40
0.0959162
50
135.6224478
51
138.8367084
0
ARC
8
right_labelLayer
10
5.2331082
20
5.1345349
40
0.0923241
50
138.957365
51
174.5424105
0
ARC
8
right_labelLayer
10
5.2631661
20
5.1298297
40
0.1227069
50
173.6901775
51
180.0882863
0
ARC
8
right_labelLayer
10
5.2589179
20
5.1369119
40
0.1365238
50
139.4133184
51
150.6034845
0
ARC
8
right_labelLayer
10
5.2344482
20
5.1578811
40
0.1042986
50
124.232387
51
139.4157915
0
ARC
8
right_labelLayer
10
5.2213564
20
5.1776418
40
0.080597
50
89.6798939
51
124.440421
0
LINE
8
right_labelLayer
10
5.3440712
20
5.2533664
11
5.3440712
21
4.9864304
0
LINE
8
right_labelLayer
10
5.3440712
20
4.9864304
11
5.3036411
21
4.9864304
0
LINE
8
right_labelLayer
10
5.3036411
20
4.9864304
11
5.3036411
21
5.2533664
0
LINE
8
right_labelLayer
10
5.3036411
20
5.2533664
11
5.3440712
21
5.2533664
0
ARC
8
right_labelLayer
10
5.3450184
20
5.3259804
40
0.044788
50
170.8439051
51
180.356051
0
ARC
8
right_labelLayer
10
5.3282516
20
5.328786
40
0.0277885
50
155.9654016
51
171.0539071
0
ARC
8
right_labelLayer
10
5.3201369
20
5.3323877
40
0.0189104
50
133.7889093
51
155.9179179
0
ARC
8
right_labelLayer
10
5.323136
20
5.3290713
40
0.0233801
50
92.6449661
51
133.4705519
0
ARC
8
right_labelLayer
10
5.3240802
20
5.3217321
40
0.030761
50
89.9636217
51
93.7710129
0
ARC
8
right_labelLayer
10
5.3244689
20
5.3286754
40
0.0238206
50
46.3704424
51
90.8879917
0
ARC
8
right_labelLayer
10
5.3268405
20
5.3311229
40
0.0204127
50
17.7249796
51
46.448415
0
ARC
8
right_labelLayer
10
5.3157835
20
5.3273153
40
0.032105
50
4.9431502
51
18.190123
0
ARC
8
right_labelLayer
10
5.3016805
20
5.3257932
40
0.0462877
50
359.8872842
51
5.3160091
0
ARC
8
right_labelLayer
10
5.3061323
20
5.3254191
40
0.0418367
50
349.8345177
51
0.3876518
0
ARC
8
right_labelLayer
10
5.3213701
20
5.322576
40
0.0263367
50
332.6311437
51
350.07172
0
ARC
8
right_labelLayer
10
5.327289
20
5.3196541
40
0.0197375
50
313.6188382
51
332.2650197
0
ARC
8
right_labelLayer
10
5.324438
20
5.3222504
40
0.0235853
50
269.178192
51
314.2817817
0
ARC
8
right_labelLayer
10
5.3238323
20
5.3243487
40
0.0256825
50
250.4993709
51
270.5966259
0
ARC
8
right_labelLayer
10
5.3230536
20
5.3214404
40
0.0226825
50
225.1292981
51
249.901212
0
ARC
8
right_labelLayer
10
5.3218371
20
5.3200974
40
0.0208726
50
197.7933046
51
224.8948851
0
ARC
8
right_labelLayer
10
5.3332308
20
5.3240016
40
0.0329151
50
184.9937752
51
198.2036261
0
ARC
8
right_labelLayer
10
5.3479839
20
5.3256045
40
0.0477528
50
179.8829244
51
185.3689224
0
LINE
8
right_labelLayer
10
5.5559638
20
5.2533664
11
5.648271
21
5.2533664
0
LINE
8
right_labelLayer
10
5.648271
20
5.2533664
11
5.648271
21
5.2277931
0
LINE
8
right_labelLayer
10
5.648271
20
5.2277931
11
5.5988294
21
5.2219478
0
LINE
8
right_labelLayer
10
5.5077399
20
5.0288089
11
5.5549895
21
5.0288089
0
LINE
8
right_labelLayer
10
5.5420811
20
4.9925193
11
5.4936138
21
4.9925193
0
ARC
8
right_labelLayer
10
5.5473053
20
5.1811726
40
0.0657065
50
29.4585409
51
38.3574419
0
ARC
8
right_labelLayer
10
5.5205069
20
5.1658713
40
0.0965654
50
23.1826105
51
29.5438421
0
ARC
8
right_labelLayer
10
5.4949965
20
5.1545492
40
0.1244736
50
21.2496833
51
23.3507778
0
ARC
8
right_labelLayer
10
5.5383903
20
5.171806
40
0.0777765
50
6.8496716
51
20.9873397
0
ARC
8
right_labelLayer
10
5.5164912
20
5.168834
40
0.0998745
50
359.8711031
51
7.0441273
0
ARC
8
right_labelLayer
10
5.5236869
20
5.167645
40
0.0926835
50
342.5652162
51
0.5961313
0
ARC
8
right_labelLayer
10
5.5407801
20
5.1629254
40
0.0749639
50
310.6097462
51
342.0923524
0
ARC
8
right_labelLayer
10
5.531193
20
5.1740778
40
0.0896706
50
284.9320654
51
310.6218821
0
ARC
8
right_labelLayer
10
5.5191985
20
5.2161119
40
0.1333781
50
272.5337583
51
285.257843
0
ARC
8
right_labelLayer
10
5.5161151
20
5.25833
40
0.1756954
50
269.9692348
51
272.9296474
0
ARC
8
right_labelLayer
10
5.5157325
20
5.2125587
40
0.1299245
50
263.4830862
51
270.1271302
0
ARC
8
right_labelLayer
10
5.5136027
20
5.1923908
40
0.1096454
50
259.4959037
51
263.3926965
0
ARC
8
right_labelLayer
10
5.5267173
20
5.0207021
40
0.0719486
50
117.3935121
51
128.4087896
0
ARC
8
right_labelLayer
10
5.5081926
20
5.0436841
40
0.0424318
50
128.0875827
51
147.1400818
0
ARC
8
right_labelLayer
10
5.4982151
20
5.0503797
40
0.0304184
50
147.536832
51
180.25988
0
ARC
8
right_labelLayer
10
5.4887501
20
5.0499828
40
0.0209547
50
179.2918264
51
198.3577254
0
ARC
8
right_labelLayer
10
5.4848264
20
5.0489519
40
0.016908
50
199.2296925
51
239.5694573
0
ARC
8
right_labelLayer
10
5.4879636
20
5.053249
40
0.0222085
50
238.2057891
51
239.8483076
0
ARC
8
right_labelLayer
10
5.4906745
20
5.0587866
40
0.0283619
50
240.7319783
51
254.5037852
0
ARC
8
right_labelLayer
10
5.4984183
20
5.085474
40
0.0561493
50
254.1648557
51
262.2111973
0
ARC
8
right_labelLayer
10
5.5045447
20
5.1282598
40
0.099371
50
262.0546749
51
267.2086152
0
ARC
8
right_labelLayer
10
5.5075047
20
5.1825337
40
0.1537249
50
267.0918339
51
270.0876804
0
ARC
8
right_labelLayer
10
5.5558722
20
4.8632935
40
0.1655178
50
81.5750621
51
90.3055316
0
ARC
8
right_labelLayer
10
5.5649519
20
4.9225208
40
0.1055997
50
68.3669455
51
81.7400575
0
ARC
8
right_labelLayer
10
5.5768126
20
4.9528279
40
0.0730549
50
52.1868614
51
68.2511156
0
ARC
8
right_labelLayer
10
5.5851034
20
4.9639977
40
0.0591484
50
8.6205633
51
51.8979647
0
ARC
8
right_labelLayer
10
5.5560207
20
4.9578457
40
0.0888413
50
359.7431136
51
9.7319801
0
ARC
8
right_labelLayer
10
5.5573286
20
4.9563476
40
0.0875395
50
340.526736
51
0.7198445
0
ARC
8
right_labelLayer
10
5.5701908
20
4.9531448
40
0.0743563
50
302.9904094
51
339.5494588
0
ARC
8
right_labelLayer
10
5.5578619
20
4.9685513
40
0.094012
50
303.17291
51
304.1802816
0
ARC
8
right_labelLayer
10
5.5441064
20
4.9920876
40
0.1212467
50
286.2543033
51
302.5280128
0
ARC
8
right_labelLayer
10
5.5212077
20
5.0676145
40
0.2001659
50
276.4942094
51
286.4957066
0
ARC
8
right_labelLayer
10
5.5069194
20
5.1870613
40
0.3204628
50
269.754788
51
276.6170075
0
ARC
8
right_labelLayer
10
5.5044795
20
5.0931173
40
0.2265183
50
262.5637952
51
270.2702445
0
ARC
8
right_labelLayer
10
5.4933856
20
5.0108829
40
0.14354
50
251.2100988
51
262.7065688
0
ARC
8
right_labelLayer
10
5.4773949
20
4.9639482
40
0.0939561
50
235.9663488
51
251.2228175
0
ARC
8
right_labelLayer
10
5.4604474
20
4.9397716
40
0.0644377
50
208.9037585
51
236.422886
0
ARC
8
right_labelLayer
10
5.4620029
20
4.9391186
40
0.0654972
50
182.2077854
51
207.7458524
0
ARC
8
right_labelLayer
10
5.4817897
20
4.9410935
40
0.0853541
50
179.9759669
51
183.0208141
0
ARC
8
right_labelLayer
10
5.4582449
20
4.9422141
40
0.061819
50
138.3914551
51
181.005513
0
ARC
8
right_labelLayer
10
5.4647723
20
4.9363489
40
0.0705942
50
113.8117746
51
138.3501062
0
ARC
8
right_labelLayer
10
5.4771543
20
4.9096142
40
0.1000535
50
102.2865468
51
114.1177367
0
ARC
8
right_labelLayer
10
5.4732659
20
5.0455582
40
0.0419612
50
216.5861498
51
245.4968633
0
ARC
8
right_labelLayer
10
5.479744
20
5.050997
40
0.0504071
50
215.4714601
51
217.1612905
0
ARC
8
right_labelLayer
10
5.4692676
20
5.0434278
40
0.0374828
50
182.1770099
51
215.3415829
0
ARC
8
right_labelLayer
10
5.4780262
20
5.0443793
40
0.0462754
50
179.9788235
51
182.9423835
0
ARC
8
right_labelLayer
10
5.4779853
20
5.0447866
40
0.0462361
50
161.7226111
51
180.4835158
0
ARC
8
right_labelLayer
10
5.4729053
20
5.0461719
40
0.0409789
50
144.4978308
51
161.3341466
0
ARC
8
right_labelLayer
10
5.4864557
20
5.0360704
40
0.0578776
50
132.7263475
51
144.147009
0
ARC
8
right_labelLayer
10
5.5081715
20
5.0128806
40
0.0896473
50
125.2219345
51
132.8658707
0
ARC
8
right_labelLayer
10
5.530033
20
4.982516
40
0.1270617
50
121.2357931
51
125.3781831
0
ARC
8
right_labelLayer
10
5.4912964
20
5.1566297
40
0.070878
50
215.1643644
51
247.4746838
0
ARC
8
right_labelLayer
10
5.5045871
20
5.1673483
40
0.0879233
50
212.4731695
51
215.8864599
0
ARC
8
right_labelLayer
10
5.5010453
20
5.1648169
40
0.0835764
50
183.0158036
51
212.3127279
0
ARC
8
right_labelLayer
10
5.519383
20
5.1668584
40
0.1020017
50
179.9741457
51
183.6190665
0
ARC
8
right_labelLayer
10
5.5341784
20
5.1678917
40
0.1168014
50
166.8190302
51
180.4843142
0
ARC
8
right_labelLayer
10
5.4954369
20
5.1776741
40
0.0768531
50
132.3289839
51
167.3338287
0
ARC
8
right_labelLayer
10
5.5006204
20
5.1702224
40
0.0858607
50
106.2188951
51
131.5376793
0
ARC
8
right_labelLayer
10
5.5137384
20
5.1277431
40
0.1303155
50
93.6331864
51
106.5403589
0
ARC
8
right_labelLayer
10
5.5180197
20
5.0797138
40
0.1785239
50
89.9380151
51
94.0276606
0
ARC
8
right_labelLayer
10
5.518713
20
5.1032813
40
0.154957
50
82.5845581
51
90.1849658
0
ARC
8
right_labelLayer
10
5.5234537
20
5.13993
40
0.1180031
50
74.0080885
51
82.5705119
0
ARC
8
right_labelLayer
10
5.4760078
20
4.9410642
40
0.0406073
50
179.2209368
51
200.9346558
0
ARC
8
right_labelLayer
10
5.4711769
20
4.9399463
40
0.0357024
50
202.0290248
51
236.1459898
0
ARC
8
right_labelLayer
10
5.4784906
20
4.9492421
40
0.047505
50
235.0662463
51
238.5021168
0
ARC
8
right_labelLayer
10
5.4869146
20
4.9642984
40
0.0647478
50
239.1071016
51
254.4867316
0
ARC
8
right_labelLayer
10
5.4981962
20
5.0031994
40
0.1052501
50
254.2329634
51
263.4936624
0
ARC
8
right_labelLayer
10
5.5052788
20
5.0631711
40
0.1656384
50
263.410169
51
270.1465365
0
LINE
8
right_labelLayer
10
5.5057024
20
4.8975332
11
5.5060351
21
4.897533
0
ARC
8
right_labelLayer
10
5.5070039
20
5.1693477
40
0.2718164
50
269.7957787
51
275.3986376
0
ARC
8
right_labelLayer
10
5.517172
20
5.0649213
40
0.1668968
50
275.2963181
51
283.3509061
0
ARC
8
right_labelLayer
10
5.5337467
20
4.9966417
40
0.0966358
50
283.1374062
51
295.8565794
0
ARC
8
right_labelLayer
10
5.5460616
20
4.9697659
40
0.0670828
50
296.4024106
51
301.8039492
0
ARC
8
right_labelLayer
10
5.5508452
20
4.9631872
40
0.0589739
50
301.2226371
51
318.6240224
0
ARC
8
right_labelLayer
10
5.5617028
20
4.9531576
40
0.0441983
50
319.0768451
51
1.1409426
0
ARC
8
right_labelLayer
10
5.5511955
20
4.954471
40
0.0546987
50
359.546104
51
10.9909197
0
ARC
8
right_labelLayer
10
5.5723234
20
4.9587688
40
0.0331395
50
10.6608129
51
30.9367138
0
ARC
8
right_labelLayer
10
5.5790195
20
4.9624842
40
0.0254874
50
31.5113833
51
58.076251
0
ARC
8
right_labelLayer
10
5.5727445
20
4.9512483
40
0.0383469
50
58.9959089
51
73.8591315
0
ARC
8
right_labelLayer
10
5.560057
20
4.9097209
40
0.081767
50
73.4087192
51
81.591847
0
ARC
8
right_labelLayer
10
5.5492989
20
4.8401189
40
0.1521947
50
81.4168059
51
86.5755124
0
ARC
8
right_labelLayer
10
5.5427093
20
4.7352761
40
0.257244
50
86.5052877
51
90.1398992
0
ARC
8
right_labelLayer
10
5.4930355
20
4.8995832
40
0.0929379
50
89.6435012
51
100.0207947
0
ARC
8
right_labelLayer
10
5.4871953
20
4.931358
40
0.060632
50
99.8109297
51
116.8229649
0
ARC
8
right_labelLayer
10
5.481498
20
4.9433679
40
0.0473448
50
117.228338
51
130.503151
0
ARC
8
right_labelLayer
10
5.4785828
20
4.9471142
40
0.0426032
50
130.7944512
51
169.0412874
0
ARC
8
right_labelLayer
10
5.5000945
20
4.9420486
40
0.0646916
50
168.2584415
51
180.3828022
0
ARC
8
right_labelLayer
10
5.5362338
20
5.1672741
40
0.078912
50
179.561033
51
191.6531852
0
ARC
8
right_labelLayer
10
5.5088003
20
5.161346
40
0.0508472
50
191.3549556
51
213.3659732
0
ARC
8
right_labelLayer
10
5.5022167
20
5.1575458
40
0.0432608
50
213.9579877
51
227.7957416
0
ARC
8
right_labelLayer
10
5.5079446
20
5.1644956
40
0.0522585
50
228.2625151
51
254.7343895
0
ARC
8
right_labelLayer
10
5.515269
20
5.1896044
40
0.0784113
50
254.4019532
51
267.4349247
0
ARC
8
right_labelLayer
10
5.5171762
20
5.2152166
40
0.104086
50
267.0171231
51
270.0343449
0
ARC
8
right_labelLayer
10
5.5184289
20
5.1992029
40
0.0880805
50
269.2256993
51
284.3770737
0
ARC
8
right_labelLayer
10
5.5304342
20
5.1573753
40
0.0445992
50
282.7793397
51
346.4832068
0
ARC
8
right_labelLayer
10
5.4945459
20
5.1675417
40
0.0818834
50
345.435939
51
0.7470523
0
ARC
8
right_labelLayer
10
5.4894993
20
5.1698525
40
0.086932
50
359.1806084
51
15.0435881
0
ARC
8
right_labelLayer
10
5.5288882
20
5.1813433
40
0.0459188
50
13.9536352
51
77.6672382
0
ARC
8
right_labelLayer
10
5.5175865
20
5.1408418
40
0.0879321
50
76.1096029
51
90.7028321
0
ARC
8
right_labelLayer
10
5.5158948
20
5.1439347
40
0.0848348
50
89.5859425
51
101.3332639
0
ARC
8
right_labelLayer
10
5.5098326
20
5.1728513
40
0.0552914
50
101.0622598
51
121.9740922
0
ARC
8
right_labelLayer
10
5.5055708
20
5.1805177
40
0.0465335
50
122.5213867
51
134.9974883
0
ARC
8
right_labelLayer
10
5.5073276
20
5.1794638
40
0.0485236
50
135.5844221
51
163.0009114
0
ARC
8
right_labelLayer
10
5.5329475
20
5.1710671
40
0.0754809
50
162.5911967
51
175.7345843
0
ARC
8
right_labelLayer
10
5.5636748
20
5.1680414
40
0.1063507
50
175.3402734
51
180.0876549
0
LINE
8
right_labelLayer
10
5.9261669
20
4.9864304
11
5.8857368
21
4.9864304
0
LINE
8
right_labelLayer
10
5.8857368
20
4.9864304
11
5.8857368
21
5.1591107
0
LINE
8
right_labelLayer
10
5.7435009
20
5.1259873
11
5.7435009
21
4.9864304
0
LINE
8
right_labelLayer
10
5.7435009
20
4.9864304
11
5.7030708
21
4.9864304
0
LINE
8
right_labelLayer
10
5.7030708
20
4.9864304
11
5.7030708
21
5.3654015
0
LINE
8
right_labelLayer
10
5.7030708
20
5.3654015
11
5.7435009
21
5.3654015
0
LINE
8
right_labelLayer
10
5.7435009
20
5.3654015
11
5.7435009
21
5.2506873
0
LINE
8
right_labelLayer
10
5.7415524
20
5.2163461
11
5.743988
21
5.2163461
0
LINE
8
right_labelLayer
10
5.9261669
20
5.160572
11
5.9261669
21
4.9864304
0
ARC
8
right_labelLayer
10
5.771436
20
5.1597649
40
0.1143027
50
359.6720602
51
8.6870293
0
ARC
8
right_labelLayer
10
5.8138098
20
5.1664834
40
0.0714007
50
8.4933103
51
22.6579996
0
ARC
8
right_labelLayer
10
5.8353333
20
5.175428
40
0.0480927
50
22.7023492
51
42.3428457
0
ARC
8
right_labelLayer
10
5.8377493
20
5.1765138
40
0.0455831
50
43.3796508
51
71.5382058
0
ARC
8
right_labelLayer
10
5.8287042
20
5.151241
40
0.072422
50
71.0822118
51
84.3689416
0
ARC
8
right_labelLayer
10
5.8246418
20
5.1166917
40
0.107205
50
84.0200545
51
90.1500429
0
ARC
8
right_labelLayer
10
5.8234897
20
5.1015455
40
0.1223538
50
89.5919574
51
100.3589531
0
ARC
8
right_labelLayer
10
5.8148253
20
5.1470814
40
0.0760029
50
100.1062869
51
118.0848675
0
ARC
8
right_labelLayer
10
5.8060181
20
5.1643655
40
0.0566088
50
118.4561663
51
139.6700196
0
ARC
8
right_labelLayer
10
5.8148635
20
5.158321
40
0.0672732
50
140.6211788
51
160.5044356
0
ARC
8
right_labelLayer
10
5.8614843
20
5.1410622
40
0.1169831
50
160.1565
51
171.5315497
0
ARC
8
right_labelLayer
10
5.9369488
20
5.1291058
40
0.1933869
50
171.3203709
51
178.3402711
0
ARC
8
right_labelLayer
10
6.0048644
20
5.126086
40
0.2613635
50
178.1097855
51
180.0216481
0
ARC
8
right_labelLayer
10
5.379768
20
5.2502586
40
0.3637332
50
357.8668633
51
0.0675313
0
ARC
8
right_labelLayer
10
5.5031953
20
5.245549
40
0.2402162
50
354.9840708
51
357.8936139
0
ARC
8
right_labelLayer
10
5.5847669
20
5.2384572
40
0.158337
50
351.9726468
51
354.95969
0
ARC
8
right_labelLayer
10
5.8124694
20
5.1735085
40
0.080776
50
119.8314589
51
147.9725436
0
ARC
8
right_labelLayer
10
5.8222241
20
5.1585366
40
0.0986217
50
116.6659793
51
120.4207759
0
ARC
8
right_labelLayer
10
5.8240759
20
5.1536893
40
0.1037857
50
96.6647925
51
116.3785814
0
ARC
8
right_labelLayer
10
5.8280122
20
5.1265531
40
0.1311976
50
89.892681
51
96.9968076
0
ARC
8
right_labelLayer
10
5.8292706
20
5.0937167
40
0.1640368
50
80.6866603
51
90.3537139
0
ARC
8
right_labelLayer
10
5.8394857
20
5.1538037
40
0.1030892
50
65.6017222
51
80.8847436
0
ARC
8
right_labelLayer
10
5.8517521
20
5.1814252
40
0.0728679
50
46.7395288
51
65.4139334
0
ARC
8
right_labelLayer
10
5.852583
20
5.1840532
40
0.0703948
50
19.2201817
51
45.766125
0
ARC
8
right_labelLayer
10
5.8119928
20
5.1690052
40
0.1136795
50
6.4734891
51
19.647018
0
ARC
8
right_labelLayer
10
5.7513567
20
5.1612006
40
0.1748113
50
359.793982
51
6.7745546
0
LINE
8
right_labelLayer
10
6.1319706
20
5.0197974
11
6.1319706
21
4.988866
0
LINE
8
right_labelLayer
10
6.0121417
20
5.0631502
11
6.0121417
21
5.2219478
0
LINE
8
right_labelLayer
10
6.0121417
20
5.2219478
11
5.9739036
21
5.2219478
0
LINE
8
right_labelLayer
10
5.9739036
20
5.2219478
11
5.9739036
21
5.2414322
0
LINE
8
right_labelLayer
10
5.9739036
20
5.2414322
11
6.0121417
21
5.2582375
0
LINE
8
right_labelLayer
10
6.0121417
20
5.2582375
11
6.0291905
21
5.3152293
0
LINE
8
right_labelLayer
10
6.0291905
20
5.3152293
11
6.0525718
21
5.3152293
0
LINE
8
right_labelLayer
10
6.0525718
20
5.3152293
11
6.0525718
21
5.2533664
0
LINE
8
right_labelLayer
10
6.0525718
20
5.2533664
11
6.1300222
21
5.2533664
0
LINE
8
right_labelLayer
10
6.1300222
20
5.2533664
11
6.1300222
21
5.2219478
0
LINE
8
right_labelLayer
10
6.1300222
20
5.2219478
11
6.0525718
21
5.2219478
0
LINE
8
right_labelLayer
10
6.0525718
20
5.2219478
11
6.0525718
21
5.064855
0
ARC
8
right_labelLayer
10
6.0957159
20
5.1476865
40
0.1327604
50
269.8797992
51
278.303387
0
ARC
8
right_labelLayer
10
6.0964146
20
5.1409879
40
0.1260315
50
278.4288622
51
279.0042587
0
ARC
8
right_labelLayer
10
6.0821358
20
5.2322514
40
0.2184052
50
278.9568771
51
280.5104902
0
ARC
8
right_labelLayer
10
6.0963206
20
5.156156
40
0.140999
50
280.4837319
51
282.6290824
0
ARC
8
right_labelLayer
10
6.1087209
20
5.10108
40
0.0845444
50
282.5894225
51
285.5800523
0
ARC
8
right_labelLayer
10
6.1160902
20
5.0742012
40
0.0566742
50
285.7020695
51
286.2724457
0
ARC
8
right_labelLayer
10
6.1149615
20
5.024846
40
0.0397979
50
287.9914886
51
295.3018456
0
ARC
8
right_labelLayer
10
6.1053784
20
5.0538408
40
0.0703351
50
283.3083151
51
288.1208091
0
ARC
8
right_labelLayer
10
6.0952703
20
5.0959921
40
0.1136812
50
280.005896
51
283.3757243
0
ARC
8
right_labelLayer
10
6.0881447
20
5.134769
40
0.1531065
50
279.1940924
51
280.110578
0
ARC
8
right_labelLayer
10
6.0843049
20
5.1566005
40
0.1752712
50
275.5258062
51
279.2929238
0
ARC
8
right_labelLayer
10
6.0889943
20
5.1076207
40
0.1260677
50
270.8942867
51
275.54798
0
ARC
8
right_labelLayer
10
6.0896016
20
5.0843825
40
0.102823
50
269.9947244
51
270.7580672
0
ARC
8
right_labelLayer
10
6.0879606
20
5.0871461
40
0.1055994
50
253.7850963
51
270.8852471
0
ARC
8
right_labelLayer
10
6.0754499
20
5.0444786
40
0.0611356
50
190.3817408
51
253.877385
0
ARC
8
right_labelLayer
10
6.1392128
20
5.0617198
40
0.1270792
50
179.3550776
51
192.8480705
0
ARC
8
right_labelLayer
10
6.1339871
20
5.0643458
40
0.0814169
50
179.6416449
51
189.7500703
0
ARC
8
right_labelLayer
10
6.1052443
20
5.0592203
40
0.0522215
50
189.5483122
51
205.7871865
0
ARC
8
right_labelLayer
10
6.093439
20
5.053778
40
0.039225
50
206.1309174
51
221.4064677
0
ARC
8
right_labelLayer
10
6.092107
20
5.0527682
40
0.0375582
50
221.5950468
51
262.3509496
0
ARC
8
right_labelLayer
10
6.0952569
20
5.068972
40
0.0540458
50
261.3277465
51
270.1913242
0
LINE
8
bottom_outsideCutPath
10
8.2954
20
2.862
11
8.8331
21
2.862
0
LINE
8
bottom_outsideCutPath
10
8.8331
20
2.862
11
8.8331
21
2.744
0
LINE
8
bottom_outsideCutPath
10
8.8331
20
2.744
11
9.3869
21
2.744
0
LINE
8
bottom_outsideCutPath
10
9.3869
20
2.744
11
9.3869
21
2.862
0
LINE
8
bottom_outsideCutPath
10
9.3869
20
2.862
11
9.9246
21
2.862
0
LINE
8
bottom_outsideCutPath
10
9.9246
20
2.862
11
9.9246
21
2.744
0
LINE
8
bottom_outsideCutPath
10
9.9246
20
2.744
11
10.4784
21
2.744
0
LINE
8
bottom_outsideCutPath
10
10.4784
20
2.744
11
10.4784
21
2.862
0
LINE
8
bottom_outsideCutPath
10
10.4784
20
2.862
11
11.114
21
2.862
0
LINE
8
bottom_outsideCutPath
10
11.114
20
2.862
11
11.114
21
3.1684
0
LINE
8
bottom_outsideCutPath
10
11.114
20
3.1684
11
11.232
21
3.1684
0
LINE
8
bottom_outsideCutPath
10
11.232
20
3.1684
11
11.232
21
3.7221
0
LINE
8
bottom_outsideCutPath
10
11.232
20
3.7221
11
11.114
21
3.7221
0
LINE
8
bottom_outsideCutPath
10
11.114
20
3.7221
11
11.114
21
4.2599
0
LINE
8
bottom_outsideCutPath
10
11.114
20
4.2599
11
11.232
21
4.2599
0
LINE
8
bottom_outsideCutPath
10
11.232
20
4.2599
11
11.232
21
4.8136
0
LINE
8
bottom_outsideCutPath
10
11.232
20
4.8136
11
11.114
21
4.8136
0
LINE
8
bottom_outsideCutPath
10
11.114
20
4.8136
11
11.114
21
5.12
0
LINE
8
bottom_outsideCutPath
10
11.114
20
5.12
11
10.4784
21
5.12
0
LINE
8
bottom_outsideCutPath
10
10.4784
20
5.12
11
10.4784
21
5.238
0
LINE
8
bottom_outsideCutPath
10
10.4784
20
5.238
11
9.9246
21
5.238
0
LINE
8
bottom_outsideCutPath
10
9.9246
20
5.238
11
9.9246
21
5.12
0
LINE
8
bottom_outsideCutPath
10
9.9246
20
5.12
11
9.3869
21
5.12
0
LINE
8
bottom_outsideCutPath
10
9.3869
20
5.12
11
9.3869
21
5.238
0
LINE
8
bottom_outsideCutPath
10
9.3869
20
5.238
11
8.8331
21
5.238
0
LINE
8
bottom_outsideCutPath
10
8.8331
20
5.238
11
8.8331
21
5.12
0
LINE
8
bottom_outsideCutPath
10
8.8331
20
5.12
11
8.2954
21
5.12
0
LINE
8
bottom_outsideCutPath
10
8.2954
20
5.12
11
8.2954
21
5.238
0
LINE
8
bottom_outsideCutPath
10
8.2954
20
5.238
11
7.7416
21
5.238
0
LINE
8
bottom_outsideCutPath
10
7.7416
20
5.238
11
7.7416
21
5.12
0
LINE
8
bottom_outsideCutPath
10
7.7416
20
5.12
11
7.106
21
5.12
0
LINE
8
bottom_outsideCutPath
10
7.106
20
5.12
11
7.106
21
4.8136
0
LINE
8
bottom_outsideCutPath
10
7.106
20
4.8136
11
6.988
21
4.8136
0
LINE
8
bottom_outsideCutPath
10
6.988
20
4.8136
11
6.988
21
4.2599
0
LINE
8
bottom_outsideCutPath
10
6.988
20
4.2599
11
7.106
21
4.2599
0
LINE
8
bottom_outsideCutPath
10
7.106
20
4.2599
11
7.106
21
3.7221
0
LINE
8
bottom_outsideCutPath
10
7.106
20
3.7221
11
6.988
21
3.7221
0
LINE
8
bottom_outsideCutPath
10
6.988
20
3.7221
11
6.988
21
3.1684
0
LINE
8
bottom_outsideCutPath
10
6.988
20
3.1684
11
7.106
21
3.1684
0
LINE
8
bottom_outsideCutPath
10
7.106
20
3.1684
11
7.106
21
2.862
0
LINE
8
bottom_outsideCutPath
10
7.106
20
2.862
11
7.7416
21
2.862
0
LINE
8
bottom_outsideCutPath
10
7.7416
20
2.862
11
7.7416
21
2.744
0
LINE
8
bottom_outsideCutPath
10
7.7416
20
2.744
11
8.2954
21
2.744
0
LINE
8
bottom_outsideCutPath
10
8.2954
20
2.744
11
8.2954
21
2.862
0
LINE
8
bottom_labelLayer
10
8.3298932
20
3.8382975
11
8.3269705
21
3.8382975
0
LINE
8
bottom_labelLayer
10
8.3269705
20
3.8382975
11
8.3184461
21
3.8039563
0
LINE
8
bottom_labelLayer
10
8.3184461
20
3.8039563
11
8.2894631
21
3.8039563
0
LINE
8
bottom_labelLayer
10
8.2894631
20
3.8039563
11
8.2894631
21
4.1829274
0
LINE
8
bottom_labelLayer
10
8.2894631
20
4.1829274
11
8.3298932
21
4.1829274
0
LINE
8
bottom_labelLayer
10
8.3298932
20
4.1829274
11
8.3298932
21
4.0908637
0
LINE
8
bottom_labelLayer
10
8.3279448
20
4.0353333
11
8.3298932
21
4.0353333
0
ARC
8
bottom_labelLayer
10
8.4148881
20
3.9517125
40
0.1235696
50
74.239171
51
90.5620354
0
ARC
8
bottom_labelLayer
10
8.423059
20
3.9816882
40
0.0925021
50
38.5630791
51
74.0667233
0
ARC
8
bottom_labelLayer
10
8.4020295
20
3.9653372
40
0.119139
50
16.4712621
51
38.4072138
0
ARC
8
bottom_labelLayer
10
8.3414459
20
3.946342
40
0.1826251
50
5.1342019
51
16.7969879
0
ARC
8
bottom_labelLayer
10
8.2650077
20
3.9382208
40
0.2594863
50
359.8778972
51
5.4098102
0
ARC
8
bottom_labelLayer
10
8.2874584
20
3.9362681
40
0.2370391
50
350.6560922
51
0.3383278
0
ARC
8
bottom_labelLayer
10
8.3700955
20
3.9222104
40
0.1532167
50
335.830137
51
350.8259565
0
ARC
8
bottom_labelLayer
10
8.406438
20
3.9065233
40
0.1136386
50
321.3161674
51
335.5436166
0
ARC
8
bottom_labelLayer
10
8.4203353
20
3.8951995
40
0.0957127
50
274.0642126
51
321.4079491
0
ARC
8
bottom_labelLayer
10
8.4138613
20
3.9361818
40
0.1370969
50
269.9225727
51
275.5493158
0
ARC
8
bottom_labelLayer
10
8.4129933
20
3.9217147
40
0.1226314
50
255.7757258
51
270.3189567
0
ARC
8
bottom_labelLayer
10
8.4094961
20
3.9061733
40
0.1067079
50
245.9805548
51
255.5454844
0
ARC
8
bottom_labelLayer
10
8.4027163
20
3.8904046
40
0.0895451
50
215.5848577
51
245.8360592
0
ARC
8
bottom_labelLayer
10
7.4870432
20
4.0901455
40
0.8428503
50
358.1125095
51
0.0488224
0
ARC
8
bottom_labelLayer
10
7.7214264
20
4.0822786
40
0.6083351
50
355.7244524
51
358.1259575
0
ARC
8
bottom_labelLayer
10
7.8172465
20
4.0757196
40
0.5122928
50
355.4784249
51
355.6570195
0
ARC
8
bottom_labelLayer
10
8.405294
20
3.9827539
40
0.0919231
50
95.1837648
51
145.1107365
0
ARC
8
bottom_labelLayer
10
8.4133732
20
3.9371965
40
0.1380801
50
89.8743296
51
96.8147154
0
ARC
8
bottom_labelLayer
10
8.4069834
20
3.9278242
40
0.1136011
50
89.5726342
51
100.7329947
0
ARC
8
bottom_labelLayer
10
8.3985757
20
3.9703006
40
0.0703029
50
100.4476592
51
119.6692735
0
ARC
8
bottom_labelLayer
10
8.3907754
20
3.9848865
40
0.0537699
50
120.1405483
51
142.4248377
0
ARC
8
bottom_labelLayer
10
8.4036815
20
3.9763493
40
0.0692136
50
143.3386877
51
161.2553132
0
ARC
8
bottom_labelLayer
10
8.4576325
20
3.9571956
40
0.1264606
50
160.8926266
51
171.2336258
0
ARC
8
bottom_labelLayer
10
8.5477432
20
3.9426607
40
0.2177348
50
171.0674071
51
177.8452873
0
ARC
8
bottom_labelLayer
10
8.6413205
20
3.9379037
40
0.3114272
50
177.618004
51
180.0433915
0
ARC
8
bottom_labelLayer
10
8.597213
20
3.936624
40
0.2673219
50
179.7762812
51
185.7075063
0
ARC
8
bottom_labelLayer
10
8.4918028
20
3.9257623
40
0.1613544
50
185.5921666
51
194.2054971
0
ARC
8
bottom_labelLayer
10
8.4243056
20
3.908244
40
0.091623
50
193.9436131
51
208.0217628
0
ARC
8
bottom_labelLayer
10
8.396997
20
3.8943524
40
0.0609922
50
208.5540696
51
217.5589002
0
ARC
8
bottom_labelLayer
10
8.3947593
20
3.8934196
40
0.058653
50
218.1690767
51
253.804786
0
ARC
8
bottom_labelLayer
10
8.4056372
20
3.9269578
40
0.0939006
50
253.138413
51
266.848941
0
ARC
8
bottom_labelLayer
10
8.4086921
20
3.9629731
40
0.130034
50
266.3772434
51
270.0497132
0
ARC
8
bottom_labelLayer
10
8.4096674
20
3.9135291
40
0.0805944
50
269.3868563
51
285.8635466
0
ARC
8
bottom_labelLayer
10
8.4156547
20
3.8918917
40
0.0581447
50
286.0165406
51
326.8492651
0
ARC
8
bottom_labelLayer
10
8.3867549
20
3.9110364
40
0.09281
50
326.710391
51
343.666073
0
ARC
8
bottom_labelLayer
10
8.3326591
20
3.9275674
40
0.1493729
50
343.4166906
51
353.6367546
0
ARC
8
bottom_labelLayer
10
8.2509385
20
3.9372632
40
0.2316652
50
353.493588
51
0.2205457
0
ARC
8
bottom_labelLayer
10
8.2437204
20
3.9391218
40
0.2388835
50
359.7680944
51
6.3090152
0
ARC
8
bottom_labelLayer
10
8.3337217
20
3.9494481
40
0.1482929
50
6.1647178
51
16.0399551
0
ARC
8
bottom_labelLayer
10
8.3916329
20
3.9665119
40
0.0879223
50
15.7804847
51
31.9758524
0
ARC
8
bottom_labelLayer
10
8.4095701
20
3.9767554
40
0.067287
50
32.6652376
51
35.5206273
0
ARC
8
bottom_labelLayer
10
8.4163602
20
3.981577
40
0.0589592
50
35.5407638
51
79.8010545
0
ARC
8
bottom_labelLayer
10
8.4084425
20
3.9479133
40
0.0935108
50
78.6785929
51
90.3748792
0
ARC
8
bottom_labelLayer
10
8.6167018
20
3.936259
40
0.20883
50
349.1760347
51
0.386536
0
ARC
8
bottom_labelLayer
10
8.6870079
20
3.9222421
40
0.1371435
50
330.2504625
51
349.4118887
0
ARC
8
bottom_labelLayer
10
8.7086608
20
3.9109837
40
0.1127621
50
318.1427822
51
329.757719
0
ARC
8
bottom_labelLayer
10
8.7125483
20
3.9078666
40
0.107787
50
278.8958235
51
317.9979612
0
ARC
8
bottom_labelLayer
10
8.7024844
20
3.9560864
40
0.1570027
50
269.750681
51
279.8031783
0
ARC
8
bottom_labelLayer
10
8.7008541
20
3.9289175
40
0.1298357
50
253.5438598
51
270.4179617
0
ARC
8
bottom_labelLayer
10
8.6965306
20
3.9121927
40
0.1125729
50
238.811098
51
253.2428225
0
ARC
8
bottom_labelLayer
10
8.6951381
20
3.9093925
40
0.1094567
50
207.7950439
51
238.6755933
0
ARC
8
bottom_labelLayer
10
8.7149742
20
3.9215572
40
0.1326852
50
205.6534022
51
208.4477074
0
ARC
8
bottom_labelLayer
10
8.7305695
20
3.9280726
40
0.1495666
50
188.9102048
51
205.3168921
0
ARC
8
bottom_labelLayer
10
8.7825147
20
3.9368705
40
0.2022487
50
179.7741309
51
189.0932505
0
ARC
8
bottom_labelLayer
10
8.7901834
20
3.9390896
40
0.2099208
50
169.2441847
51
180.3880525
0
ARC
8
bottom_labelLayer
10
8.7188958
20
3.953181
40
0.1372569
50
150.710987
51
169.4695624
0
ARC
8
bottom_labelLayer
10
8.6961514
20
3.9648588
40
0.1117112
50
138.176624
51
150.2278512
0
ARC
8
bottom_labelLayer
10
8.6923543
20
3.9677722
40
0.1069394
50
99.1759585
51
137.9832112
0
ARC
8
bottom_labelLayer
10
8.7027723
20
3.9187537
40
0.1570114
50
89.7322259
51
100.0765586
0
ARC
8
bottom_labelLayer
10
8.7048558
20
3.9399124
40
0.1358576
50
73.5225394
51
90.5692064
0
ARC
8
bottom_labelLayer
10
8.7128236
20
3.9688625
40
0.1058379
50
41.1443482
51
73.2135914
0
ARC
8
bottom_labelLayer
10
8.6976135
20
3.9557895
40
0.1258935
50
13.5014791
51
41.0702102
0
ARC
8
bottom_labelLayer
10
8.6388631
20
3.9404142
40
0.1866142
50
1.1275731
51
13.8803281
0
ARC
8
bottom_labelLayer
10
8.5884509
20
3.9377086
40
0.2370759
50
359.9901341
51
1.5415612
0
ARC
8
bottom_labelLayer
10
8.8268827
20
3.9366159
40
0.2047266
50
179.7056008
51
187.9161402
0
ARC
8
bottom_labelLayer
10
8.7518032
20
3.925831
40
0.1288776
50
187.7641259
51
200.0977648
0
ARC
8
bottom_labelLayer
10
8.7104347
20
3.9106735
40
0.0848197
50
200.084742
51
216.9132787
0
ARC
8
bottom_labelLayer
10
8.6953282
20
3.8998864
40
0.0662642
50
217.300851
51
261.7102193
0
ARC
8
bottom_labelLayer
10
8.7023414
20
3.9333499
40
0.1004116
50
260.5032305
51
270.2476746
0
ARC
8
bottom_labelLayer
10
8.70368
20
3.9268463
40
0.0939113
50
269.4481222
51
284.7251043
0
ARC
8
bottom_labelLayer
10
8.7111144
20
3.8992726
40
0.0653537
50
284.5659957
51
322.6332334
0
ARC
8
bottom_labelLayer
10
8.6937294
20
3.9118314
40
0.0867946
50
323.0094508
51
342.6387924
0
ARC
8
bottom_labelLayer
10
8.644014
20
3.9280795
40
0.1390951
50
342.361529
51
353.7534043
0
ARC
8
bottom_labelLayer
10
8.5706686
20
3.9369208
40
0.2129685
50
353.535957
51
0.2009705
0
ARC
8
bottom_labelLayer
10
8.5819329
20
3.9386988
40
0.2017054
50
359.7071553
51
7.8978207
0
ARC
8
bottom_labelLayer
10
8.6557871
20
3.9492892
40
0.1270969
50
7.7437025
51
20.0686579
0
ARC
8
bottom_labelLayer
10
8.6969581
20
3.9643971
40
0.0832414
50
20.0252971
51
37.4351269
0
ARC
8
bottom_labelLayer
10
8.7106154
20
3.9740886
40
0.0665086
50
37.9574838
51
80.4004961
0
ARC
8
bottom_labelLayer
10
8.7028524
20
3.9394527
40
0.1019711
50
79.3449781
51
90.3169284
0
ARC
8
bottom_labelLayer
10
8.7014153
20
3.9452134
40
0.0962127
50
89.4800898
51
103.8809326
0
ARC
8
bottom_labelLayer
10
8.6933311
20
3.9759944
40
0.0643928
50
103.4684302
51
142.3118717
0
ARC
8
bottom_labelLayer
10
8.7090506
20
3.9649401
40
0.083595
50
142.9030497
51
162.3750202
0
ARC
8
bottom_labelLayer
10
8.7585672
20
3.9484371
40
0.1357862
50
162.0646965
51
173.1675216
0
ARC
8
bottom_labelLayer
10
8.8357693
20
3.938588
40
0.2136125
50
173.0080243
51
180.2468235
0
LINE
8
bottom_labelLayer
10
9.019153
20
3.8373233
11
9.019153
21
3.8063918
0
LINE
8
bottom_labelLayer
10
8.8993241
20
3.880676
11
8.8993241
21
4.0394737
0
LINE
8
bottom_labelLayer
10
8.8993241
20
4.0394737
11
8.861086
21
4.0394737
0
LINE
8
bottom_labelLayer
10
8.861086
20
4.0394737
11
8.861086
21
4.0589581
0
LINE
8
bottom_labelLayer
10
8.861086
20
4.0589581
11
8.8993241
21
4.0757633
0
LINE
8
bottom_labelLayer
10
8.8993241
20
4.0757633
11
8.9163729
21
4.1327551
0
LINE
8
bottom_labelLayer
10
8.9163729
20
4.1327551
11
8.9397541
21
4.1327551
0
LINE
8
bottom_labelLayer
10
8.9397541
20
4.1327551
11
8.9397541
21
4.0708922
0
LINE
8
bottom_labelLayer
10
8.9397541
20
4.0708922
11
9.0172045
21
4.0708922
0
LINE
8
bottom_labelLayer
10
9.0172045
20
4.0708922
11
9.0172045
21
4.0394737
0
LINE
8
bottom_labelLayer
10
9.0172045
20
4.0394737
11
8.9397541
21
4.0394737
0
LINE
8
bottom_labelLayer
10
8.9397541
20
4.0394737
11
8.9397541
21
3.8823809
0
ARC
8
bottom_labelLayer
10
8.9828983
20
3.9652123
40
0.1327604
50
269.8797992
51
278.303387
0
ARC
8
bottom_labelLayer
10
8.983597
20
3.9585138
40
0.1260315
50
278.4288622
51
279.0042587
0
ARC
8
bottom_labelLayer
10
8.9693182
20
4.0497772
40
0.2184052
50
278.9568771
51
280.5104902
0
ARC
8
bottom_labelLayer
10
8.983503
20
3.9736819
40
0.140999
50
280.4837319
51
282.6290824
0
ARC
8
bottom_labelLayer
10
8.9959033
20
3.9186058
40
0.0845444
50
282.5894225
51
285.5800523
0
ARC
8
bottom_labelLayer
10
9.0032726
20
3.8917271
40
0.0566742
50
285.7020695
51
286.2724457
0
ARC
8
bottom_labelLayer
10
9.0021439
20
3.8423719
40
0.0397979
50
287.9914886
51
295.3018456
0
ARC
8
bottom_labelLayer
10
8.9925607
20
3.8713667
40
0.0703351
50
283.3083151
51
288.1208091
0
ARC
8
bottom_labelLayer
10
8.9824527
20
3.913518
40
0.1136812
50
280.005896
51
283.3757243
0
ARC
8
bottom_labelLayer
10
8.9753271
20
3.9522949
40
0.1531065
50
279.1940924
51
280.110578
0
ARC
8
bottom_labelLayer
10
8.9714872
20
3.9741263
40
0.1752712
50
275.5258062
51
279.2929238
0
ARC
8
bottom_labelLayer
10
8.9761767
20
3.9251466
40
0.1260677
50
270.8942867
51
275.54798
0
ARC
8
bottom_labelLayer
10
8.9767839
20
3.9019084
40
0.102823
50
269.9947244
51
270.7580672
0
ARC
8
bottom_labelLayer
10
8.975143
20
3.904672
40
0.1055994
50
253.7850963
51
270.8852471
0
ARC
8
bottom_labelLayer
10
8.9626323
20
3.8620045
40
0.0611356
50
190.3817408
51
253.877385
0
ARC
8
bottom_labelLayer
10
9.0263951
20
3.8792457
40
0.1270792
50
179.3550776
51
192.8480705
0
ARC
8
bottom_labelLayer
10
9.0211694
20
3.8818717
40
0.0814169
50
179.6416449
51
189.7500703
0
ARC
8
bottom_labelLayer
10
8.9924267
20
3.8767462
40
0.0522215
50
189.5483122
51
205.7871865
0
ARC
8
bottom_labelLayer
10
8.9806214
20
3.8713039
40
0.039225
50
206.1309174
51
221.4064677
0
ARC
8
bottom_labelLayer
10
8.9792894
20
3.8702941
40
0.0375582
50
221.5950468
51
262.3509496
0
ARC
8
bottom_labelLayer
10
8.9824393
20
3.8864978
40
0.0540458
50
261.3277465
51
270.1913242
0
LINE
8
bottom_labelLayer
10
9.195243
20
3.8373233
11
9.195243
21
3.8063918
0
LINE
8
bottom_labelLayer
10
9.0754141
20
3.880676
11
9.0754141
21
4.0394737
0
LINE
8
bottom_labelLayer
10
9.0754141
20
4.0394737
11
9.037176
21
4.0394737
0
LINE
8
bottom_labelLayer
10
9.037176
20
4.0394737
11
9.037176
21
4.0589581
0
LINE
8
bottom_labelLayer
10
9.037176
20
4.0589581
11
9.0754141
21
4.0757633
0
LINE
8
bottom_labelLayer
10
9.0754141
20
4.0757633
11
9.0924629
21
4.1327551
0
LINE
8
bottom_labelLayer
10
9.0924629
20
4.1327551
11
9.1158442
21
4.1327551
0
LINE
8
bottom_labelLayer
10
9.1158442
20
4.1327551
11
9.1158442
21
4.0708922
0
LINE
8
bottom_labelLayer
10
9.1158442
20
4.0708922
11
9.1932946
21
4.0708922
0
LINE
8
bottom_labelLayer
10
9.1932946
20
4.0708922
11
9.1932946
21
4.0394737
0
LINE
8
bottom_labelLayer
10
9.1932946
20
4.0394737
11
9.1158442
21
4.0394737
0
LINE
8
bottom_labelLayer
10
9.1158442
20
4.0394737
11
9.1158442
21
3.8823809
0
ARC
8
bottom_labelLayer
10
9.1589883
20
3.9652123
40
0.1327604
50
269.8797992
51
278.303387
0
ARC
8
bottom_labelLayer
10
9.159687
20
3.9585138
40
0.1260315
50
278.4288622
51
279.0042587
0
ARC
8
bottom_labelLayer
10
9.1454082
20
4.0497772
40
0.2184052
50
278.9568771
51
280.5104902
0
ARC
8
bottom_labelLayer
10
9.159593
20
3.9736819
40
0.140999
50
280.4837319
51
282.6290824
0
ARC
8
bottom_labelLayer
10
9.1719933
20
3.9186058
40
0.0845444
50
282.5894225
51
285.5800523
0
ARC
8
bottom_labelLayer
10
9.1793626
20
3.8917271
40
0.0566742
50
285.7020695
51
286.2724457
0
ARC
8
bottom_labelLayer
10
9.1782339
20
3.8423719
40
0.0397979
50
287.9914886
51
295.3018456
0
ARC
8
bottom_labelLayer
10
9.1686508
20
3.8713667
40
0.0703351
50
283.3083151
51
288.1208091
0
ARC
8
bottom_labelLayer
10
9.1585427
20
3.913518
40
0.1136812
50
280.005896
51
283.3757243
0
ARC
8
bottom_labelLayer
10
9.1514172
20
3.9522949
40
0.1531065
50
279.1940924
51
280.110578
0
ARC
8
bottom_labelLayer
10
9.1475773
20
3.9741263
40
0.1752712
50
275.5258062
51
279.2929238
0
ARC
8
bottom_labelLayer
10
9.1522667
20
3.9251466
40
0.1260677
50
270.8942867
51
275.54798
0
ARC
8
bottom_labelLayer
10
9.152874
20
3.9019084
40
0.102823
50
269.9947244
51
270.7580672
0
ARC
8
bottom_labelLayer
10
9.151233
20
3.904672
40
0.1055994
50
253.7850963
51
270.8852471
0
ARC
8
bottom_labelLayer
10
9.1387223
20
3.8620045
40
0.0611356
50
190.3817408
51
253.877385
0
ARC
8
bottom_labelLayer
10
9.2024852
20
3.8792457
40
0.1270792
50
179.3550776
51
192.8480705
0
ARC
8
bottom_labelLayer
10
9.1972595
20
3.8818717
40
0.0814169
50
179.6416449
51
189.7500703
0
ARC
8
bottom_labelLayer
10
9.1685167
20
3.8767462
40
0.0522215
50
189.5483122
51
205.7871865
0
ARC
8
bottom_labelLayer
10
9.1567114
20
3.8713039
40
0.039225
50
206.1309174
51
221.4064677
0
ARC
8
bottom_labelLayer
10
9.1553794
20
3.8702941
40
0.0375582
50
221.5950468
51
262.3509496
0
ARC
8
bottom_labelLayer
10
9.1585293
20
3.8864978
40
0.0540458
50
261.3277465
51
270.1913242
0
ARC
8
bottom_labelLayer
10
9.270159
20
3.936259
40
0.20883
50
349.1760347
51
0.386536
0
ARC
8
bottom_labelLayer
10
9.3404651
20
3.9222421
40
0.1371435
50
330.2504625
51
349.4118887
0
ARC
8
bottom_labelLayer
10
9.362118
20
3.9109837
40
0.1127621
50
318.1427822
51
329.757719
0
ARC
8
bottom_labelLayer
10
9.3660055
20
3.9078666
40
0.107787
50
278.8958235
51
317.9979612
0
ARC
8
bottom_labelLayer
10
9.3559416
20
3.9560864
40
0.1570027
50
269.750681
51
279.8031783
0
ARC
8
bottom_labelLayer
10
9.3543113
20
3.9289175
40
0.1298357
50
253.5438598
51
270.4179617
0
ARC
8
bottom_labelLayer
10
9.3499879
20
3.9121927
40
0.1125729
50
238.811098
51
253.2428225
0
ARC
8
bottom_labelLayer
10
9.3485954
20
3.9093925
40
0.1094567
50
207.7950439
51
238.6755933
0
ARC
8
bottom_labelLayer
10
9.3684314
20
3.9215572
40
0.1326852
50
205.6534022
51
208.4477074
0
ARC
8
bottom_labelLayer
10
9.3840267
20
3.9280726
40
0.1495666
50
188.9102048
51
205.3168921
0
ARC
8
bottom_labelLayer
10
9.4359719
20
3.9368705
40
0.2022487
50
179.7741309
51
189.0932505
0
ARC
8
bottom_labelLayer
10
9.4436407
20
3.9390896
40
0.2099208
50
169.2441847
51
180.3880525
0
ARC
8
bottom_labelLayer
10
9.372353
20
3.953181
40
0.1372569
50
150.710987
51
169.4695624
0
ARC
8
bottom_labelLayer
10
9.3496086
20
3.9648588
40
0.1117112
50
138.176624
51
150.2278512
0
ARC
8
bottom_labelLayer
10
9.3458115
20
3.9677722
40
0.1069394
50
99.1759585
51
137.9832112
0
ARC
8
bottom_labelLayer
10
9.3562295
20
3.9187537
40
0.1570114
50
89.7322259
51
100.0765586
0
ARC
8
bottom_labelLayer
10
9.358313
20
3.9399124
40
0.1358576
50
73.5225394
51
90.5692064
0
ARC
8
bottom_labelLayer
10
9.3662809
20
3.9688625
40
0.1058379
50
41.1443482
51
73.2135914
0
ARC
8
bottom_labelLayer
10
9.3510708
20
3.9557895
40
0.1258935
50
13.5014791
51
41.0702102
0
ARC
8
bottom_labelLayer
10
9.2923203
20
3.9404142
40
0.1866142
50
1.1275731
51
13.8803281
0
ARC
8
bottom_labelLayer
10
9.2419082
20
3.9377086
40
0.2370759
50
359.9901341
51
1.5415612
0
ARC
8
bottom_labelLayer
10
9.48034
20
3.9366159
40
0.2047266
50
179.7056008
51
187.9161402
0
ARC
8
bottom_labelLayer
10
9.4052604
20
3.925831
40
0.1288776
50
187.7641259
51
200.0977648
0
ARC
8
bottom_labelLayer
10
9.3638919
20
3.9106735
40
0.0848197
50
200.084742
51
216.9132787
0
ARC
8
bottom_labelLayer
10
9.3487855
20
3.8998864
40
0.0662642
50
217.300851
51
261.7102193
0
ARC
8
bottom_labelLayer
10
9.3557986
20
3.9333499
40
0.1004116
50
260.5032305
51
270.2476746
0
ARC
8
bottom_labelLayer
10
9.3571372
20
3.9268463
40
0.0939113
50
269.4481222
51
284.7251043
0
ARC
8
bottom_labelLayer
10
9.3645716
20
3.8992726
40
0.0653537
50
284.5659957
51
322.6332334
0
ARC
8
bottom_labelLayer
10
9.3471866
20
3.9118314
40
0.0867946
50
323.0094508
51
342.6387924
0
ARC
8
bottom_labelLayer
10
9.2974712
20
3.9280795
40
0.1390951
50
342.361529
51
353.7534043
0
ARC
8
bottom_labelLayer
10
9.2241258
20
3.9369208
40
0.2129685
50
353.535957
51
0.2009705
0
ARC
8
bottom_labelLayer
10
9.2353901
20
3.9386988
40
0.2017054
50
359.7071553
51
7.8978207
0
ARC
8
bottom_labelLayer
10
9.3092444
20
3.9492892
40
0.1270969
50
7.7437025
51
20.0686579
0
ARC
8
bottom_labelLayer
10
9.3504153
20
3.9643971
40
0.0832414
50
20.0252971
51
37.4351269
0
ARC
8
bottom_labelLayer
10
9.3640726
20
3.9740886
40
0.0665086
50
37.9574838
51
80.4004961
0
ARC
8
bottom_labelLayer
10
9.3563096
20
3.9394527
40
0.1019711
50
79.3449781
51
90.3169284
0
ARC
8
bottom_labelLayer
10
9.3548725
20
3.9452134
40
0.0962127
50
89.4800898
51
103.8809326
0
ARC
8
bottom_labelLayer
10
9.3467883
20
3.9759944
40
0.0643928
50
103.4684302
51
142.3118717
0
ARC
8
bottom_labelLayer
10
9.3625078
20
3.9649401
40
0.083595
50
142.9030497
51
162.3750202
0
ARC
8
bottom_labelLayer
10
9.4120244
20
3.9484371
40
0.1357862
50
162.0646965
51
173.1675216
0
ARC
8
bottom_labelLayer
10
9.4892265
20
3.938588
40
0.2136125
50
173.0080243
51
180.2468235
0
LINE
8
bottom_labelLayer
10
9.9305346
20
3.8039563
11
9.8901045
21
3.8039563
0
LINE
8
bottom_labelLayer
10
9.8901045
20
3.8039563
11
9.8901045
21
3.9776108
0
LINE
8
bottom_labelLayer
10
9.7602899
20
3.9530118
11
9.7602899
21
3.8039563
0
LINE
8
bottom_labelLayer
10
9.7602899
20
3.8039563
11
9.7198598
21
3.8039563
0
LINE
8
bottom_labelLayer
10
9.7198598
20
3.8039563
11
9.7198598
21
3.9776108
0
LINE
8
bottom_labelLayer
10
9.5902887
20
3.9440002
11
9.5902887
21
3.8039563
0
LINE
8
bottom_labelLayer
10
9.5902887
20
3.8039563
11
9.5498586
21
3.8039563
0
LINE
8
bottom_labelLayer
10
9.5498586
20
3.8039563
11
9.5498586
21
4.0708922
0
LINE
8
bottom_labelLayer
10
9.5498586
20
4.0708922
11
9.5827385
21
4.0708922
0
LINE
8
bottom_labelLayer
10
9.5827385
20
4.0708922
11
9.5893145
21
4.034359
0
LINE
8
bottom_labelLayer
10
9.5893145
20
4.034359
11
9.5912629
21
4.034359
0
LINE
8
bottom_labelLayer
10
9.752009
20
4.0304622
11
9.7539575
21
4.0304622
0
LINE
8
bottom_labelLayer
10
9.9305346
20
3.9780979
11
9.9305346
21
3.8039563
0
ARC
8
bottom_labelLayer
10
9.7708297
20
3.9782448
40
0.1192765
50
359.6954451
51
8.1474301
0
ARC
8
bottom_labelLayer
10
9.8147644
20
3.9847466
40
0.0748643
50
7.9869174
51
20.795129
0
ARC
8
bottom_labelLayer
10
9.839053
20
3.9940513
40
0.0488546
50
20.7066904
51
40.0226521
0
ARC
8
bottom_labelLayer
10
9.8443774
20
3.9975353
40
0.0425435
50
41.0408664
51
73.1792416
0
ARC
8
bottom_labelLayer
10
9.8366701
20
3.9742264
40
0.0670885
50
72.6391226
51
86.2576213
0
ARC
8
bottom_labelLayer
10
9.8341966
20
3.9474852
40
0.093937
50
85.8167337
51
90.0668603
0
ARC
8
bottom_labelLayer
10
9.833291
20
3.937397
40
0.1040282
50
89.5615876
51
101.2961678
0
ARC
8
bottom_labelLayer
10
9.8254578
20
3.9749
40
0.065718
50
101.0038617
51
121.7836256
0
ARC
8
bottom_labelLayer
10
9.8195014
20
3.9855353
40
0.053543
50
122.3598354
51
140.2874992
0
ARC
8
bottom_labelLayer
10
9.830211
20
3.9776829
40
0.0668034
50
140.9756059
51
161.1709737
0
ARC
8
bottom_labelLayer
10
9.870598
20
3.96331
40
0.1096694
50
160.8736918
51
172.5269177
0
ARC
8
bottom_labelLayer
10
9.9380472
20
3.9539938
40
0.177758
50
172.3771494
51
180.1827241
0
ARC
8
bottom_labelLayer
10
9.9755254
20
3.9531156
40
0.2152353
50
179.9171393
51
180.0276423
0
ARC
8
bottom_labelLayer
10
9.6005849
20
3.9782448
40
0.1192765
50
359.6954451
51
8.1474301
0
ARC
8
bottom_labelLayer
10
9.6445196
20
3.9847466
40
0.0748643
50
7.9869174
51
20.795129
0
ARC
8
bottom_labelLayer
10
9.6688083
20
3.9940513
40
0.0488546
50
20.7066904
51
40.0226521
0
ARC
8
bottom_labelLayer
10
9.6742431
20
3.9976118
40
0.04241
50
41.0609758
51
72.8990016
0
ARC
8
bottom_labelLayer
10
9.6663874
20
3.9742204
40
0.0670801
50
72.360846
51
85.9554414
0
ARC
8
bottom_labelLayer
10
9.6637298
20
3.9467851
40
0.0946372
50
85.5220037
51
90.079367
0
ARC
8
bottom_labelLayer
10
9.6628237
20
3.9409969
40
0.1004283
50
89.5578781
51
101.4823957
0
ARC
8
bottom_labelLayer
10
9.6551151
20
3.9771199
40
0.0634946
50
101.1544177
51
123.0657178
0
ARC
8
bottom_labelLayer
10
9.6498818
20
3.9862395
40
0.053
50
123.703495
51
142.300963
0
ARC
8
bottom_labelLayer
10
9.6621499
20
3.9779189
40
0.0678014
50
143.077176
51
161.3911801
0
ARC
8
bottom_labelLayer
10
9.7116365
20
3.9604438
40
0.1202796
50
161.0243647
51
171.446065
0
ARC
8
bottom_labelLayer
10
9.7934821
20
3.9476228
40
0.2031224
50
171.3037134
51
178.350651
0
ARC
8
bottom_labelLayer
10
9.8716361
20
3.9441246
40
0.2813475
50
178.0966536
51
180.0253259
0
ARC
8
bottom_labelLayer
10
9.6597558
20
3.9940822
40
0.0794575
50
117.1205428
51
149.5425808
0
ARC
8
bottom_labelLayer
10
9.667866
20
3.9796693
40
0.0959851
50
93.8341508
51
117.5074688
0
ARC
8
bottom_labelLayer
10
9.6701088
20
3.9597712
40
0.1159921
50
89.9674852
51
94.2822972
0
ARC
8
bottom_labelLayer
10
9.6714475
20
3.9433941
40
0.1323754
50
77.5575515
51
90.5509326
0
ARC
8
bottom_labelLayer
10
9.6837304
20
3.9962305
40
0.0781358
50
52.7022077
51
78.0050905
0
ARC
8
bottom_labelLayer
10
9.6881068
20
4.004371
40
0.0690237
50
22.2100981
51
51.4973627
0
ARC
8
bottom_labelLayer
10
9.8271989
20
3.988487
40
0.0844169
50
119.4042896
51
150.1826898
0
ARC
8
bottom_labelLayer
10
9.8363635
20
3.9746019
40
0.1010196
50
118.2542794
51
120.0660931
0
ARC
8
bottom_labelLayer
10
9.8365336
20
3.9732104
40
0.1023272
50
95.8634502
51
117.9693707
0
ARC
8
bottom_labelLayer
10
9.8399953
20
3.9481808
40
0.1275826
50
89.9189211
51
96.2615966
0
ARC
8
bottom_labelLayer
10
9.8411088
20
3.9352234
40
0.140543
50
79.9365113
51
90.380348
0
ARC
8
bottom_labelLayer
10
9.8504728
20
3.9859441
40
0.088967
50
62.9723708
51
80.1664453
0
ARC
8
bottom_labelLayer
10
9.8602598
20
4.0060251
40
0.066633
50
44.2294867
51
62.6223791
0
ARC
8
bottom_labelLayer
10
9.8573508
20
4.0047423
40
0.0696211
50
19.5609403
51
43.3159953
0
ARC
8
bottom_labelLayer
10
9.8150714
20
3.9888613
40
0.1147804
50
7.5038035
51
19.9647282
0
ARC
8
bottom_labelLayer
10
9.7450858
20
3.979034
40
0.185451
50
359.7107798
51
7.6902712
0
ENDSEC
0
EOF